<svg  preserveAspectRatio="xMinYMin meet" viewBox="0 0 20 20"  xmlns="http://www.w3.org/2000/svg">
<path id="account" fill-rule="evenodd" clip-rule="evenodd" d="M7 6C7.79565 6 8.55871 5.68393 9.12132 5.12132C9.68393 4.55871 10 3.79565 10 3C10 2.20435 9.68393 1.44129 9.12132 0.87868C8.55871 0.316071 7.79565 0 7 0C6.20435 0 5.44129 0.316071 4.87868 0.87868C4.31607 1.44129 4 2.20435 4 3C4 3.79565 4.31607 4.55871 4.87868 5.12132C5.44129 5.68393 6.20435 6 7 6ZM0 15C-1.36979e-08 14.0807 0.18106 13.1705 0.532843 12.3212C0.884626 11.4719 1.40024 10.7003 2.05025 10.0503C2.70026 9.40024 3.47194 8.88463 4.32122 8.53284C5.1705 8.18106 6.08075 8 7 8C7.91925 8 8.8295 8.18106 9.67878 8.53284C10.5281 8.88463 11.2997 9.40024 11.9497 10.0503C12.5998 10.7003 13.1154 11.4719 13.4672 12.3212C13.8189 13.1705 14 14.0807 14 15H0Z"/>
<path id="customers" d="M9.79995 4.2C9.79995 5.15478 9.42067 6.07045 8.74554 6.74559C8.0704 7.42072 7.15473 7.8 6.19995 7.8C5.24517 7.8 4.3295 7.42072 3.65437 6.74559C2.97924 6.07045 2.59995 5.15478 2.59995 4.2C2.59995 3.24522 2.97924 2.32955 3.65437 1.65442C4.3295 0.979285 5.24517 0.6 6.19995 0.6C7.15473 0.6 8.0704 0.979285 8.74554 1.65442C9.42067 2.32955 9.79995 3.24522 9.79995 4.2V4.2ZM19.4 4.2C19.4 4.67276 19.3068 5.14089 19.1259 5.57766C18.945 6.01443 18.6798 6.41129 18.3455 6.74559C18.0112 7.07988 17.6144 7.34505 17.1776 7.52597C16.7408 7.70688 16.2727 7.8 15.8 7.8C15.3272 7.8 14.8591 7.70688 14.4223 7.52597C13.9855 7.34505 13.5887 7.07988 13.2544 6.74559C12.9201 6.41129 12.6549 6.01443 12.474 5.57766C12.2931 5.14089 12.2 4.67276 12.2 4.2C12.2 3.24522 12.5792 2.32955 13.2544 1.65442C13.9295 0.979285 14.8452 0.6 15.8 0.6C16.7547 0.6 17.6704 0.979285 18.3455 1.65442C19.0207 2.32955 19.4 3.24522 19.4 4.2V4.2ZM14.516 17.4C14.5712 17.0076 14.6 16.608 14.6 16.2C14.6027 14.3146 13.9684 12.4836 12.8 11.004C13.7121 10.4774 14.7467 10.2002 15.7999 10.2002C16.8531 10.2001 17.8878 10.4774 18.7999 11.004C19.712 11.5306 20.4694 12.288 20.996 13.2001C21.5227 14.1121 21.7999 15.1468 21.7999 16.2V17.4H14.516ZM6.19995 10.2C7.79125 10.2 9.31737 10.8321 10.4426 11.9574C11.5678 13.0826 12.2 14.6087 12.2 16.2V17.4H0.199951V16.2C0.199951 14.6087 0.832092 13.0826 1.95731 11.9574C3.08253 10.8321 4.60865 10.2 6.19995 10.2V10.2Z"/>
<path id="dashboard" d="M0 8C0 7.73478 0.105357 7.48043 0.292893 7.29289C0.48043 7.10536 0.734784 7 1 7H3C3.26522 7 3.51957 7.10536 3.70711 7.29289C3.89464 7.48043 4 7.73478 4 8V13C4 13.2652 3.89464 13.5196 3.70711 13.7071C3.51957 13.8946 3.26522 14 3 14H1C0.734784 14 0.48043 13.8946 0.292893 13.7071C0.105357 13.5196 0 13.2652 0 13V8ZM6 4C6 3.73478 6.10536 3.48043 6.29289 3.29289C6.48043 3.10536 6.73478 3 7 3H9C9.26522 3 9.51957 3.10536 9.70711 3.29289C9.89464 3.48043 10 3.73478 10 4V13C10 13.2652 9.89464 13.5196 9.70711 13.7071C9.51957 13.8946 9.26522 14 9 14H7C6.73478 14 6.48043 13.8946 6.29289 13.7071C6.10536 13.5196 6 13.2652 6 13V4ZM12 1C12 0.734784 12.1054 0.48043 12.2929 0.292893C12.4804 0.105357 12.7348 0 13 0H15C15.2652 0 15.5196 0.105357 15.7071 0.292893C15.8946 0.48043 16 0.734784 16 1V13C16 13.2652 15.8946 13.5196 15.7071 13.7071C15.5196 13.8946 15.2652 14 15 14H13C12.7348 14 12.4804 13.8946 12.2929 13.7071C12.1054 13.5196 12 13.2652 12 13V1Z"/>
<path id="settings" d="M13.95 8.78333C13.9833 8.53333 14 8.275 14 8C14 7.73333 13.9833 7.46667 13.9417 7.21667L15.6333 5.9C15.7833 5.78333 15.825 5.55833 15.7333 5.39167L14.1333 2.625C14.0333 2.44167 13.825 2.38333 13.6417 2.44167L11.65 3.24167C11.2333 2.925 10.7917 2.65833 10.3 2.45833L9.99999 0.341667C9.96666 0.141667 9.79999 0 9.59999 0H6.39999C6.19999 0 6.04166 0.141667 6.00832 0.341667L5.70832 2.45833C5.21666 2.65833 4.76666 2.93333 4.35832 3.24167L2.36666 2.44167C2.18332 2.375 1.97499 2.44167 1.87499 2.625L0.283323 5.39167C0.183323 5.56667 0.216656 5.78333 0.383323 5.9L2.07499 7.21667C2.03332 7.46667 1.99999 7.74167 1.99999 8C1.99999 8.25833 2.01666 8.53333 2.05832 8.78333L0.366656 10.1C0.216656 10.2167 0.17499 10.4417 0.266656 10.6083L1.86666 13.375C1.96666 13.5583 2.17499 13.6167 2.35832 13.5583L4.34999 12.7583C4.76666 13.075 5.20832 13.3417 5.69999 13.5417L5.99999 15.6583C6.04166 15.8583 6.19999 16 6.39999 16H9.59999C9.79999 16 9.96666 15.8583 9.99166 15.6583L10.2917 13.5417C10.7833 13.3417 11.2333 13.075 11.6417 12.7583L13.6333 13.5583C13.8167 13.625 14.025 13.5583 14.125 13.375L15.725 10.6083C15.825 10.425 15.7833 10.2167 15.625 10.1L13.95 8.78333ZM7.99999 11C6.34999 11 4.99999 9.65 4.99999 8C4.99999 6.35 6.34999 5 7.99999 5C9.64999 5 11 6.35 11 8C11 9.65 9.64999 11 7.99999 11Z"/>
<path id="login" fill-rule="evenodd" clip-rule="evenodd" d="M2 7V5C2 3.67392 2.52678 2.40215 3.46447 1.46447C4.40215 0.526784 5.67392 0 7 0C8.32608 0 9.59785 0.526784 10.5355 1.46447C11.4732 2.40215 12 3.67392 12 5V7C12.5304 7 13.0391 7.21071 13.4142 7.58579C13.7893 7.96086 14 8.46957 14 9V14C14 14.5304 13.7893 15.0391 13.4142 15.4142C13.0391 15.7893 12.5304 16 12 16H2C1.46957 16 0.960859 15.7893 0.585786 15.4142C0.210714 15.0391 0 14.5304 0 14V9C0 8.46957 0.210714 7.96086 0.585786 7.58579C0.960859 7.21071 1.46957 7 2 7ZM10 5V7H4V5C4 4.20435 4.31607 3.44129 4.87868 2.87868C5.44129 2.31607 6.20435 2 7 2C7.79565 2 8.55871 2.31607 9.12132 2.87868C9.68393 3.44129 10 4.20435 10 5Z"/>
<path id="register" d="M6 6C6.79565 6 7.55871 5.68393 8.12132 5.12132C8.68393 4.55871 9 3.79565 9 3C9 2.20435 8.68393 1.44129 8.12132 0.87868C7.55871 0.316071 6.79565 0 6 0C5.20435 0 4.44129 0.316071 3.87868 0.87868C3.31607 1.44129 3 2.20435 3 3C3 3.79565 3.31607 4.55871 3.87868 5.12132C4.44129 5.68393 5.20435 6 6 6ZM6 8C7.5913 8 9.11742 8.63214 10.2426 9.75736C11.3679 10.8826 12 12.4087 12 14H0C0 12.4087 0.632141 10.8826 1.75736 9.75736C2.88258 8.63214 4.4087 8 6 8ZM14 4C14 3.73478 13.8946 3.48043 13.7071 3.29289C13.5196 3.10536 13.2652 3 13 3C12.7348 3 12.4804 3.10536 12.2929 3.29289C12.1054 3.48043 12 3.73478 12 4V5H11C10.7348 5 10.4804 5.10536 10.2929 5.29289C10.1054 5.48043 10 5.73478 10 6C10 6.26522 10.1054 6.51957 10.2929 6.70711C10.4804 6.89464 10.7348 7 11 7H12V8C12 8.26522 12.1054 8.51957 12.2929 8.70711C12.4804 8.89464 12.7348 9 13 9C13.2652 9 13.5196 8.89464 13.7071 8.70711C13.8946 8.51957 14 8.26522 14 8V7H15C15.2652 7 15.5196 6.89464 15.7071 6.70711C15.8946 6.51957 16 6.26522 16 6C16 5.73478 15.8946 5.48043 15.7071 5.29289C15.5196 5.10536 15.2652 5 15 5H14V4Z"/>
<path id="products" fill-rule="evenodd" clip-rule="evenodd" d="M6.99999 0C4.79099 0 2.99999 1.791 2.99999 4V5H1.99999C1.48999 5 1.062 5.38301 1.006 5.89001L0.00600183 14.89C-0.0249982 15.172 0.0649948 15.455 0.254995 15.667C0.444995 15.879 0.71599 16 0.99999 16H13C13.284 16 13.555 15.879 13.745 15.667C13.935 15.455 14.025 15.172 13.994 14.89L12.994 5.89001C12.938 5.38301 12.51 5 12 5H11V4C11 1.791 9.20899 0 6.99999 0ZM8.99999 5V4C8.99999 2.895 8.10499 2 6.99999 2C5.89499 2 4.99999 2.895 4.99999 4V5H8.99999ZM2.99999 8C2.99999 7.448 3.44799 7 3.99999 7C4.55199 7 4.99999 7.448 4.99999 8C4.99999 8.552 4.55199 9 3.99999 9C3.44799 9 2.99999 8.552 2.99999 8ZM9.99999 7C9.44799 7 8.99999 7.448 8.99999 8C8.99999 8.552 9.44799 9 9.99999 9C10.552 9 11 8.552 11 8C11 7.448 10.552 7 9.99999 7Z"/>
<path id="error" fill-rule="evenodd" clip-rule="evenodd" d="M8 16C10.1217 16 12.1566 15.1571 13.6569 13.6569C15.1571 12.1566 16 10.1217 16 8C16 5.87827 15.1571 3.84344 13.6569 2.34315C12.1566 0.842855 10.1217 0 8 0C5.87827 0 3.84344 0.842855 2.34315 2.34315C0.842855 3.84344 0 5.87827 0 8C0 10.1217 0.842855 12.1566 2.34315 13.6569C3.84344 15.1571 5.87827 16 8 16ZM6.707 5.293C6.5184 5.11084 6.2658 5.01005 6.0036 5.01233C5.7414 5.0146 5.49059 5.11977 5.30518 5.30518C5.11977 5.49059 5.0146 5.7414 5.01233 6.0036C5.01005 6.2658 5.11084 6.5184 5.293 6.707L6.586 8L5.293 9.293C5.19749 9.38525 5.12131 9.49559 5.0689 9.6176C5.01649 9.7396 4.9889 9.87082 4.98775 10.0036C4.9866 10.1364 5.0119 10.2681 5.06218 10.391C5.11246 10.5139 5.18671 10.6255 5.2806 10.7194C5.3745 10.8133 5.48615 10.8875 5.60905 10.9378C5.73194 10.9881 5.86362 11.0134 5.9964 11.0123C6.12918 11.0111 6.2604 10.9835 6.3824 10.9311C6.50441 10.8787 6.61475 10.8025 6.707 10.707L8 9.414L9.293 10.707C9.4816 10.8892 9.7342 10.99 9.9964 10.9877C10.2586 10.9854 10.5094 10.8802 10.6948 10.6948C10.8802 10.5094 10.9854 10.2586 10.9877 9.9964C10.99 9.7342 10.8892 9.4816 10.707 9.293L9.414 8L10.707 6.707C10.8892 6.5184 10.99 6.2658 10.9877 6.0036C10.9854 5.7414 10.8802 5.49059 10.6948 5.30518C10.5094 5.11977 10.2586 5.0146 9.9964 5.01233C9.7342 5.01005 9.4816 5.11084 9.293 5.293L8 6.586L6.707 5.293Z"/>
<path id="arrow-1-left" d="M7.41 1.41L6 0L0 6L6 12L7.41 10.59L2.83 6L7.41 1.41Z"/>
<path id="arrow-1-right" d="M1.99984 0L0.589844 1.41L5.16984 6L0.589844 10.59L1.99984 12L7.99984 6L1.99984 0Z"/>
<path id="arrow-2-down" d="M0 0L5 5L10 0H0Z"/>
<path id="arrow-2-right" d="M0.333252 9.16665L4.49992 4.99998L0.333252 0.833313V9.16665Z"/>
<path id="arrow-3-down" d="M12.7998 6L11.7423 4.9425L7.5498 9.1275V0H6.0498V9.1275L1.8648 4.935L0.799805 6L6.7998 12L12.7998 6Z"/>
<path id="arrow-3-left" d="M16.5 7.23102H4.33L9.92 1.64102L8.5 0.231018L0.5 8.23102L8.5 16.231L9.91 14.821L4.33 9.23102H16.5V7.23102Z"/>
<path id="clock" fill-rule="evenodd" clip-rule="evenodd" d="M9.66689 19.6C12.213 19.6 14.6548 18.5886 16.4551 16.7882C18.2555 14.9879 19.2669 12.5461 19.2669 10C19.2669 7.45395 18.2555 5.01215 16.4551 3.2118C14.6548 1.41145 12.213 0.400024 9.66689 0.400024C7.12082 0.400024 4.67902 1.41145 2.87867 3.2118C1.07832 5.01215 0.0668945 7.45395 0.0668945 10C0.0668945 12.5461 1.07832 14.9879 2.87867 16.7882C4.67902 18.5886 7.12082 19.6 9.66689 19.6V19.6ZM10.8669 5.20002C10.8669 4.88176 10.7405 4.57654 10.5154 4.3515C10.2904 4.12645 9.98515 4.00002 9.66689 4.00002C9.34863 4.00002 9.04341 4.12645 8.81837 4.3515C8.59332 4.57654 8.46689 4.88176 8.46689 5.20002V10C8.46696 10.3183 8.59344 10.6234 8.81849 10.8484L12.2121 14.2432C12.3236 14.3547 12.4559 14.4432 12.6016 14.5035C12.7473 14.5638 12.9034 14.5949 13.0611 14.5949C13.2188 14.5949 13.3749 14.5638 13.5206 14.5035C13.6662 14.4432 13.7986 14.3547 13.9101 14.2432C14.0216 14.1317 14.11 13.9994 14.1704 13.8537C14.2307 13.708 14.2618 13.5519 14.2618 13.3942C14.2618 13.2365 14.2307 13.0804 14.1704 12.9347C14.11 12.7891 14.0216 12.6567 13.9101 12.5452L10.8669 9.50322V5.20002Z"/>
<path id="desktop" fill-rule="evenodd" clip-rule="evenodd" d="M24.1666 0C24.7684 0 25.28 0.206597 25.7013 0.619792C26.1226 1.03299 26.3333 1.53472 26.3333 2.125V14.875C26.3333 15.4653 26.1226 15.967 25.7013 16.3802C25.28 16.7934 24.7684 17 24.1666 17H2.49992C1.89807 17 1.38649 16.7934 0.965196 16.3802C0.5439 15.967 0.333252 15.4653 0.333252 14.875V2.125C0.333252 1.53472 0.5439 1.03299 0.965196 0.619792C1.38649 0.206597 1.89807 0 2.49992 0H24.1666ZM24.0583 15C24.1194 15 24.1805 14.9699 24.2416 14.9097C24.3027 14.8495 24.3333 14.7894 24.3333 14.7292V2.27083C24.3333 2.21065 24.3027 2.15046 24.2416 2.09028C24.1805 2.03009 24.1194 2 24.0583 2H2.60825C2.54714 2 2.48603 2.03009 2.42492 2.09028C2.36381 2.15046 2.33325 2.21065 2.33325 2.27083V14.7292C2.33325 14.7894 2.36381 14.8495 2.42492 14.9097C2.48603 14.9699 2.54714 15 2.60825 15H24.0583ZM21.0234 22.6875C21.23 22.4792 21.3333 22.2262 21.3333 21.9286C21.3333 21.631 21.23 21.378 21.0234 21.1696C20.8168 20.9613 20.5659 20.8571 20.2708 20.8571H15.8879L15.0911 18.3571C15.0025 18.119 14.8254 18 14.5598 18H11.1067C10.8411 18 10.664 18.119 10.5754 18.3571L9.77856 20.8571H5.39575C5.10061 20.8571 4.84975 20.9613 4.64315 21.1696C4.43655 21.378 4.33325 21.631 4.33325 21.9286C4.33325 22.2262 4.43655 22.4792 4.64315 22.6875C4.84975 22.8958 5.10061 23 5.39575 23H20.2708C20.5659 23 20.8168 22.8958 21.0234 22.6875Z"/>
<path id="tablet" fill-rule="evenodd" clip-rule="evenodd" d="M20 2.15625V20.8438C20 21.4427 19.7917 21.9518 19.375 22.3711C18.9583 22.7904 18.4524 23 17.8571 23H2.14286C1.54762 23 1.04167 22.7904 0.625 22.3711C0.208334 21.9518 0 21.4427 0 20.8438V2.15625C0 1.55729 0.208334 1.04818 0.625 0.628906C1.04167 0.209636 1.54762 0 2.14286 0H17.8571C18.4524 0 18.9583 0.209636 19.375 0.628906C19.7917 1.04818 20 1.55729 20 2.15625ZM12 18.5C12 18.9062 11.8516 19.2578 11.5547 19.5547C11.2578 19.8516 10.9062 20 10.5 20C10.0938 20 9.74219 19.8516 9.44531 19.5547C9.14844 19.2578 9 18.8906 9 18.4531C9 18.0156 9.14062 17.6641 9.42188 17.3984C9.70312 17.1328 10.0547 17 10.4766 17C10.8984 17 11.2578 17.1484 11.5547 17.4453C11.8516 17.7422 12 18.0938 12 18.5ZM18 2.27404V20.726C18 20.7869 17.9697 20.8478 17.9091 20.9087C17.8485 20.9696 17.7879 21 17.7273 21H2.27273C2.21212 21 2.15152 20.9696 2.09091 20.9087C2.0303 20.8478 2 20.7869 2 20.726V2.27404C2 2.21314 2.0303 2.15224 2.09091 2.09135C2.15152 2.03045 2.21212 2 2.27273 2H17.7273C17.7879 2 17.8485 2.03045 17.9091 2.09135C17.9697 2.15224 18 2.21314 18 2.27404Z"/>
<path id="mobile" fill-rule="evenodd" clip-rule="evenodd" d="M14.6665 2.15625V20.8438C14.6665 21.4427 14.4623 21.9518 14.054 22.3711C13.6457 22.7904 13.1498 23 12.5665 23H2.7665C2.18317 23 1.68734 22.7904 1.279 22.3711C0.870671 21.9518 0.666504 21.4427 0.666504 20.8438V2.15625C0.666504 1.55729 0.870671 1.04818 1.279 0.628906C1.68734 0.209636 2.18317 0 2.7665 0H12.5665C13.1498 0 13.6457 0.209636 14.054 0.628906C14.4623 1.04818 14.6665 1.55729 14.6665 2.15625ZM9.6665 18.5C9.6665 18.9062 9.51807 19.2578 9.22119 19.5547C8.92432 19.8516 8.57275 20 8.1665 20C7.76025 20 7.40869 19.8516 7.11182 19.5547C6.81494 19.2578 6.6665 18.9062 6.6665 18.5C6.6665 18.0938 6.81494 17.7422 7.11182 17.4453C7.40869 17.1484 7.76025 17 8.1665 17C8.57275 17 8.92432 17.1484 9.22119 17.4453C9.51807 17.7422 9.6665 18.0938 9.6665 18.5ZM12.6665 2.27404V20.726C12.6665 20.7869 12.6367 20.8478 12.5772 20.9087C12.5177 20.9696 12.4582 21 12.3986 21H2.93436C2.87484 21 2.81531 20.9696 2.75579 20.9087C2.69627 20.8478 2.6665 20.7869 2.6665 20.726V2.27404C2.6665 2.21314 2.69627 2.15224 2.75579 2.09135C2.81531 2.03045 2.87484 2 2.93436 2H12.3986C12.4582 2 12.5177 2.03045 12.5772 2.09135C12.6367 2.15224 12.6665 2.21314 12.6665 2.27404Z"/>
<path id="export" fill-rule="evenodd" clip-rule="evenodd" d="M0 15C0 14.7348 0.105357 14.4804 0.292893 14.2929C0.48043 14.1054 0.734784 14 1 14H13C13.2652 14 13.5196 14.1054 13.7071 14.2929C13.8946 14.4804 14 14.7348 14 15C14 15.2652 13.8946 15.5196 13.7071 15.7071C13.5196 15.8946 13.2652 16 13 16H1C0.734784 16 0.48043 15.8946 0.292893 15.7071C0.105357 15.5196 0 15.2652 0 15ZM3.293 7.293C3.48053 7.10553 3.73484 7.00021 4 7.00021C4.26516 7.00021 4.51947 7.10553 4.707 7.293L6 8.586V1C6 0.734784 6.10536 0.48043 6.29289 0.292893C6.48043 0.105357 6.73478 0 7 0C7.26522 0 7.51957 0.105357 7.70711 0.292893C7.89464 0.48043 8 0.734784 8 1V8.586L9.293 7.293C9.38525 7.19749 9.49559 7.12131 9.6176 7.0689C9.7396 7.01649 9.87082 6.9889 10.0036 6.98775C10.1364 6.9866 10.2681 7.0119 10.391 7.06218C10.5139 7.11246 10.6255 7.18671 10.7194 7.28061C10.8133 7.3745 10.8875 7.48615 10.9378 7.60905C10.9881 7.73194 11.0134 7.86362 11.0123 7.9964C11.0111 8.12918 10.9835 8.2604 10.9311 8.3824C10.8787 8.50441 10.8025 8.61475 10.707 8.707L7.707 11.707C7.51947 11.8945 7.26516 11.9998 7 11.9998C6.73484 11.9998 6.48053 11.8945 6.293 11.707L3.293 8.707C3.10553 8.51947 3.00021 8.26516 3.00021 8C3.00021 7.73484 3.10553 7.48053 3.293 7.293Z"/>
<path id="facebook" d="M4.03119 21.005V12.0552H0.941406V8.49874H4.03119V5.68484C4.03119 4.19972 4.45921 3.0468 5.31525 2.22608C6.17129 1.40536 7.30822 0.994995 8.72605 0.994995C9.87635 0.994995 10.8126 1.0471 11.5349 1.15132V4.31697H9.60884C8.88655 4.31697 8.39165 4.4733 8.12414 4.78595C7.91013 5.0465 7.80312 5.46337 7.80312 6.03658V8.49874H11.2139L10.7324 12.0552H7.80312V21.005H4.03119Z"/>
<path id="google" d="M18.5 9.21774C18.5 10.9113 18.1311 12.4234 17.3934 13.754C16.6557 15.0847 15.6168 16.125 14.2766 16.875C12.9365 17.625 11.3934 18 9.64754 18C8 18 6.47541 17.5948 5.07377 16.7843C3.67213 15.9738 2.55943 14.879 1.73566 13.5C0.911885 12.121 0.5 10.621 0.5 9C0.5 7.37903 0.911885 5.87903 1.73566 4.5C2.55943 3.12097 3.67213 2.02621 5.07377 1.21573C6.47541 0.405242 8 0 9.64754 0C12.0328 0 14.0738 0.786291 15.7705 2.35887L13.2992 4.71774C12.5123 3.96774 11.5656 3.52016 10.459 3.375C9.42623 3.22984 8.40574 3.375 7.39754 3.81048C6.38934 4.24597 5.57787 4.89919 4.96311 5.77016C4.29918 6.71371 3.96721 7.79032 3.96721 9C3.96721 10.0403 4.22541 10.9899 4.7418 11.8488C5.2582 12.7077 5.94672 13.3972 6.80738 13.9173C7.66803 14.4375 8.61475 14.6976 9.64754 14.6976C10.7541 14.6976 11.7254 14.4556 12.5615 13.9718C13.2254 13.5847 13.7787 13.0645 14.2213 12.4113C14.541 11.879 14.75 11.3468 14.8484 10.8145H9.64754V7.69355H18.3525C18.4508 8.22581 18.5 8.73387 18.5 9.21774Z"/>
<path id="import" fill-rule="evenodd" clip-rule="evenodd" d="M0 15C0 14.7348 0.105357 14.4804 0.292893 14.2929C0.48043 14.1054 0.734784 14 1 14H13C13.2652 14 13.5196 14.1054 13.7071 14.2929C13.8946 14.4804 14 14.7348 14 15C14 15.2652 13.8946 15.5196 13.7071 15.7071C13.5196 15.8946 13.2652 16 13 16H1C0.734784 16 0.48043 15.8946 0.292893 15.7071C0.105357 15.5196 0 15.2652 0 15ZM3.293 4.707C3.10553 4.51947 3.00021 4.26516 3.00021 4C3.00021 3.73484 3.10553 3.48053 3.293 3.293L6.293 0.293C6.48053 0.105529 6.73484 0.000213623 7 0.000213623C7.26516 0.000213623 7.51947 0.105529 7.707 0.293L10.707 3.293C10.8892 3.4816 10.99 3.7342 10.9877 3.9964C10.9854 4.2586 10.8802 4.50941 10.6948 4.69482C10.5094 4.88023 10.2586 4.9854 9.9964 4.98767C9.7342 4.98995 9.4816 4.88916 9.293 4.707L8 3.414V11C8 11.2652 7.89464 11.5196 7.70711 11.7071C7.51957 11.8946 7.26522 12 7 12C6.73478 12 6.48043 11.8946 6.29289 11.7071C6.10536 11.5196 6 11.2652 6 11V3.414L4.707 4.707C4.51947 4.89447 4.26516 4.99979 4 4.99979C3.73484 4.99979 3.48053 4.89447 3.293 4.707Z"/>
<path id="search" fill-rule="evenodd" clip-rule="evenodd" d="M7.6 2.8C6.32696 2.8 5.10606 3.30571 4.20589 4.20589C3.30571 5.10606 2.8 6.32696 2.8 7.6C2.8 8.87304 3.30571 10.0939 4.20589 10.9941C5.10606 11.8943 6.32696 12.4 7.6 12.4C8.87304 12.4 10.0939 11.8943 10.9941 10.9941C11.8943 10.0939 12.4 8.87304 12.4 7.6C12.4 6.32696 11.8943 5.10606 10.9941 4.20589C10.0939 3.30571 8.87304 2.8 7.6 2.8ZM0.400002 7.6C0.399857 6.46685 0.667172 5.34966 1.18021 4.33929C1.69324 3.32893 2.43751 2.45392 3.35248 1.78543C4.26744 1.11695 5.32728 0.673856 6.44578 0.492201C7.56428 0.310546 8.70986 0.395455 9.78936 0.740022C10.8689 1.08459 11.8518 1.67908 12.6582 2.47516C13.4646 3.27123 14.0718 4.2464 14.4302 5.32136C14.7887 6.39632 14.8884 7.54071 14.7212 8.66146C14.554 9.78222 14.1246 10.8477 13.468 11.7712L19.2484 17.5516C19.467 17.7779 19.5879 18.081 19.5852 18.3957C19.5825 18.7103 19.4563 19.0113 19.2338 19.2338C19.0113 19.4563 18.7103 19.5825 18.3957 19.5852C18.081 19.5879 17.7779 19.467 17.5516 19.2484L11.7724 13.4692C10.6952 14.2351 9.42802 14.6898 8.10961 14.7833C6.79121 14.8769 5.47249 14.6057 4.29796 13.9996C3.12343 13.3934 2.13843 12.4756 1.45087 11.3468C0.763314 10.218 0.399745 8.92172 0.400002 7.6V7.6Z"/>
<path id="progress" d="M7 14H5V7H7V14ZM11 14H9V4H11V14ZM15 14H13V10H15V14ZM17.5 16.1H2.5V2H17.5V16.1ZM17.5 0H2.5C1.4 0 0.5 0.9 0.5 2V16C0.5 17.1 1.4 18 2.5 18H17.5C18.6 18 19.5 17.1 19.5 16V2C19.5 0.9 18.6 0 17.5 0Z"/>
<path id="link" d="M13.3333 13.8333H1.66667V2.16667H7.5V0.5H1.66667C0.741667 0.5 0 1.25 0 2.16667V13.8333C0 14.75 0.741667 15.5 1.66667 15.5H13.3333C14.25 15.5 15 14.75 15 13.8333V8H13.3333V13.8333ZM9.16667 0.5V2.16667H12.1583L3.96667 10.3583L5.14167 11.5333L13.3333 3.34167V6.33333H15V0.5H9.16667Z"/>
<path id="notification" d="M8.99996 0.4C7.0904 0.4 5.25906 1.15857 3.9088 2.50883C2.55853 3.85909 1.79996 5.69044 1.79996 7.6V11.9032L0.951564 12.7516C0.783793 12.9194 0.669545 13.1332 0.623264 13.366C0.576983 13.5987 0.600746 13.8399 0.691551 14.0592C0.782355 14.2784 0.936122 14.4658 1.13341 14.5977C1.33071 14.7295 1.56266 14.7999 1.79996 14.8H16.2C16.4373 14.7999 16.6692 14.7295 16.8665 14.5977C17.0638 14.4658 17.2176 14.2784 17.3084 14.0592C17.3992 13.8399 17.4229 13.5987 17.3767 13.366C17.3304 13.1332 17.2161 12.9194 17.0484 12.7516L16.2 11.9032V7.6C16.2 5.69044 15.4414 3.85909 14.0911 2.50883C12.7409 1.15857 10.9095 0.4 8.99996 0.4V0.4ZM8.99996 19.6C8.04518 19.6 7.12951 19.2207 6.45438 18.5456C5.77925 17.8705 5.39996 16.9548 5.39996 16H12.6C12.6 16.9548 12.2207 17.8705 11.5455 18.5456C10.8704 19.2207 9.95474 19.6 8.99996 19.6Z"/>
</svg>
