<svg width="1138" height="423" viewBox="0 0 1138 423" fill="none" xmlns="http://www.w3.org/2000/svg">
<g clip-path="url(#clip0_0_1094)">
<g clip-path="url(#clip1_0_1094)">
<path fill-rule="evenodd" clip-rule="evenodd" d="M58.6599 235.5H1162.66H58.6599Z" stroke="#E4E7EB" stroke-dasharray="4 4"/>
<path fill-rule="evenodd" clip-rule="evenodd" d="M58.6599 122.5H1162.66H58.6599Z" stroke="#E4E7EB" stroke-dasharray="4 4"/>
<path fill-rule="evenodd" clip-rule="evenodd" d="M58.6599 65.5H1162.66H58.6599Z" stroke="#E4E7EB" stroke-dasharray="4 4"/>
<path fill-rule="evenodd" clip-rule="evenodd" d="M58.6599 178.5H1162.66H58.6599Z" stroke="#E4E7EB" stroke-dasharray="4 4"/>
<path fill-rule="evenodd" clip-rule="evenodd" d="M58.6599 290.5H1162.66H58.6599Z" stroke="#E4E7EB" stroke-dasharray="4 4"/>
<path fill-rule="evenodd" clip-rule="evenodd" d="M58.6599 347.5H1162.66H58.6599Z" stroke="#E4E7EB" stroke-dasharray="4 4"/>
<path fill-rule="evenodd" clip-rule="evenodd" d="M58.6599 404.5H1162.66H58.6599Z" stroke="#E4E7EB" stroke-dasharray="4 4"/>
<path fill-rule="evenodd" clip-rule="evenodd" d="M58.6599 9.5H1162.66H58.6599Z" stroke="#E4E7EB" stroke-dasharray="4 4"/>
</g>
<g opacity="0.85">
<path opacity="0.85" d="M24.6353 68H18.5796V67.1558L21.7788 63.6011C22.2528 63.0636 22.5786 62.6278 22.7563 62.2935C22.9383 61.9549 23.0293 61.6058 23.0293 61.2461C23.0293 60.7637 22.8833 60.368 22.5913 60.0591C22.2993 59.7502 21.91 59.5957 21.4233 59.5957C20.8394 59.5957 20.3844 59.7629 20.0586 60.0972C19.737 60.4272 19.5762 60.8885 19.5762 61.481H18.4019C18.4019 60.6304 18.6748 59.9427 19.2207 59.418C19.7708 58.8932 20.505 58.6309 21.4233 58.6309C22.2824 58.6309 22.9616 58.8573 23.4609 59.3101C23.9603 59.7586 24.21 60.3574 24.21 61.1064C24.21 62.0163 23.6302 63.0996 22.4707 64.3564L19.9951 67.0415H24.6353V68ZM31.6748 64.0581C31.6748 65.4334 31.4399 66.4554 30.9702 67.124C30.5005 67.7926 29.7663 68.127 28.7676 68.127C27.7816 68.127 27.0516 67.8011 26.5776 67.1494C26.1037 66.4935 25.8582 65.516 25.8413 64.2168V62.6489C25.8413 61.2905 26.0762 60.2812 26.5459 59.6211C27.0156 58.9609 27.752 58.6309 28.7549 58.6309C29.7493 58.6309 30.4814 58.9504 30.9512 59.5894C31.4209 60.2241 31.6621 61.2059 31.6748 62.5347V64.0581ZM30.5005 62.4521C30.5005 61.4577 30.3608 60.734 30.0815 60.2812C29.8022 59.8242 29.36 59.5957 28.7549 59.5957C28.154 59.5957 27.716 59.8221 27.4409 60.2749C27.1659 60.7277 27.0241 61.4238 27.0156 62.3633V64.2422C27.0156 65.2409 27.1595 65.9793 27.4473 66.4575C27.7393 66.9315 28.1794 67.1685 28.7676 67.1685C29.3473 67.1685 29.7769 66.9442 30.0562 66.4956C30.3397 66.047 30.4878 65.3403 30.5005 64.3755V62.4521ZM35.2168 64.8198L34.4805 65.5879V68H33.3062V58.25H34.4805V64.147L35.1089 63.3916L37.248 61.1318H38.6763L36.0039 64.001L38.9873 68H37.6099L35.2168 64.8198Z" fill="#637381"/>
<path opacity="0.85" d="M24.6353 122H18.5796V121.156L21.7788 117.601C22.2528 117.064 22.5786 116.628 22.7563 116.293C22.9383 115.955 23.0293 115.606 23.0293 115.246C23.0293 114.764 22.8833 114.368 22.5913 114.059C22.2993 113.75 21.91 113.596 21.4233 113.596C20.8394 113.596 20.3844 113.763 20.0586 114.097C19.737 114.427 19.5762 114.889 19.5762 115.481H18.4019C18.4019 114.63 18.6748 113.943 19.2207 113.418C19.7708 112.893 20.505 112.631 21.4233 112.631C22.2824 112.631 22.9616 112.857 23.4609 113.31C23.9603 113.759 24.21 114.357 24.21 115.106C24.21 116.016 23.6302 117.1 22.4707 118.356L19.9951 121.042H24.6353V122ZM31.6748 118.058C31.6748 119.433 31.4399 120.455 30.9702 121.124C30.5005 121.793 29.7663 122.127 28.7676 122.127C27.7816 122.127 27.0516 121.801 26.5776 121.149C26.1037 120.493 25.8582 119.516 25.8413 118.217V116.649C25.8413 115.291 26.0762 114.281 26.5459 113.621C27.0156 112.961 27.752 112.631 28.7549 112.631C29.7493 112.631 30.4814 112.95 30.9512 113.589C31.4209 114.224 31.6621 115.206 31.6748 116.535V118.058ZM30.5005 116.452C30.5005 115.458 30.3608 114.734 30.0815 114.281C29.8022 113.824 29.36 113.596 28.7549 113.596C28.154 113.596 27.716 113.822 27.4409 114.275C27.1659 114.728 27.0241 115.424 27.0156 116.363V118.242C27.0156 119.241 27.1595 119.979 27.4473 120.458C27.7393 120.931 28.1794 121.168 28.7676 121.168C29.3473 121.168 29.7769 120.944 30.0562 120.496C30.3397 120.047 30.4878 119.34 30.5005 118.375V116.452ZM35.2168 118.82L34.4805 119.588V122H33.3062V112.25H34.4805V118.147L35.1089 117.392L37.248 115.132H38.6763L36.0039 118.001L38.9873 122H37.6099L35.2168 118.82Z" fill="#637381"/>
<path opacity="0.85" d="M24.6353 178H18.5796V177.156L21.7788 173.601C22.2528 173.064 22.5786 172.628 22.7563 172.293C22.9383 171.955 23.0293 171.606 23.0293 171.246C23.0293 170.764 22.8833 170.368 22.5913 170.059C22.2993 169.75 21.91 169.596 21.4233 169.596C20.8394 169.596 20.3844 169.763 20.0586 170.097C19.737 170.427 19.5762 170.889 19.5762 171.481H18.4019C18.4019 170.63 18.6748 169.943 19.2207 169.418C19.7708 168.893 20.505 168.631 21.4233 168.631C22.2824 168.631 22.9616 168.857 23.4609 169.31C23.9603 169.759 24.21 170.357 24.21 171.106C24.21 172.016 23.6302 173.1 22.4707 174.356L19.9951 177.042H24.6353V178ZM31.6748 174.058C31.6748 175.433 31.4399 176.455 30.9702 177.124C30.5005 177.793 29.7663 178.127 28.7676 178.127C27.7816 178.127 27.0516 177.801 26.5776 177.149C26.1037 176.493 25.8582 175.516 25.8413 174.217V172.649C25.8413 171.291 26.0762 170.281 26.5459 169.621C27.0156 168.961 27.752 168.631 28.7549 168.631C29.7493 168.631 30.4814 168.95 30.9512 169.589C31.4209 170.224 31.6621 171.206 31.6748 172.535V174.058ZM30.5005 172.452C30.5005 171.458 30.3608 170.734 30.0815 170.281C29.8022 169.824 29.36 169.596 28.7549 169.596C28.154 169.596 27.716 169.822 27.4409 170.275C27.1659 170.728 27.0241 171.424 27.0156 172.363V174.242C27.0156 175.241 27.1595 175.979 27.4473 176.458C27.7393 176.931 28.1794 177.168 28.7676 177.168C29.3473 177.168 29.7769 176.944 30.0562 176.496C30.3397 176.047 30.4878 175.34 30.5005 174.375V172.452ZM35.2168 174.82L34.4805 175.588V178H33.3062V168.25H34.4805V174.147L35.1089 173.392L37.248 171.132H38.6763L36.0039 174.001L38.9873 178H37.6099L35.2168 174.82Z" fill="#637381"/>
<path opacity="0.85" d="M24.6353 12H18.5796V11.1558L21.7788 7.60107C22.2528 7.06364 22.5786 6.62777 22.7563 6.29346C22.9383 5.95492 23.0293 5.60579 23.0293 5.24609C23.0293 4.76367 22.8833 4.368 22.5913 4.05908C22.2993 3.75016 21.91 3.5957 21.4233 3.5957C20.8394 3.5957 20.3844 3.76286 20.0586 4.09717C19.737 4.42725 19.5762 4.88851 19.5762 5.48096H18.4019C18.4019 4.63037 18.6748 3.94271 19.2207 3.41797C19.7708 2.89323 20.505 2.63086 21.4233 2.63086C22.2824 2.63086 22.9616 2.85726 23.4609 3.31006C23.9603 3.75863 24.21 4.35742 24.21 5.10645C24.21 6.01628 23.6302 7.09961 22.4707 8.35645L19.9951 11.0415H24.6353V12ZM31.6748 8.05811C31.6748 9.43343 31.4399 10.4554 30.9702 11.124C30.5005 11.7926 29.7663 12.127 28.7676 12.127C27.7816 12.127 27.0516 11.8011 26.5776 11.1494C26.1037 10.4935 25.8582 9.51595 25.8413 8.2168V6.64893C25.8413 5.29053 26.0762 4.28125 26.5459 3.62109C27.0156 2.96094 27.752 2.63086 28.7549 2.63086C29.7493 2.63086 30.4814 2.95036 30.9512 3.58936C31.4209 4.22412 31.6621 5.20589 31.6748 6.53467V8.05811ZM30.5005 6.45215C30.5005 5.45768 30.3608 4.73405 30.0815 4.28125C29.8022 3.82422 29.36 3.5957 28.7549 3.5957C28.154 3.5957 27.716 3.8221 27.4409 4.2749C27.1659 4.7277 27.0241 5.42383 27.0156 6.36328V8.24219C27.0156 9.24089 27.1595 9.97933 27.4473 10.4575C27.7393 10.9315 28.1794 11.1685 28.7676 11.1685C29.3473 11.1685 29.7769 10.9442 30.0562 10.4956C30.3397 10.047 30.4878 9.34033 30.5005 8.37549V6.45215ZM35.2168 8.81982L34.4805 9.58789V12H33.3062V2.25H34.4805V8.14697L35.1089 7.3916L37.248 5.13184H38.6763L36.0039 8.00098L38.9873 12H37.6099L35.2168 8.81982Z" fill="#637381"/>
<path opacity="0.85" d="M22.439 235H21.2583V227.173L18.8906 228.043V226.977L22.2549 225.713H22.439V235ZM26.4189 230.366L26.8887 225.758H31.624V226.843H27.8853L27.606 229.363C28.0588 229.097 28.5729 228.963 29.1484 228.963C29.9906 228.963 30.6592 229.243 31.1543 229.801C31.6494 230.356 31.897 231.107 31.897 232.055C31.897 233.007 31.6388 233.758 31.1226 234.308C30.6105 234.854 29.8932 235.127 28.9707 235.127C28.154 235.127 27.4875 234.901 26.9712 234.448C26.4549 233.995 26.1608 233.369 26.0889 232.569H27.1997C27.2716 233.098 27.46 233.498 27.7646 233.769C28.0693 234.035 28.4714 234.168 28.9707 234.168C29.5166 234.168 29.944 233.982 30.2529 233.61C30.5661 233.237 30.7227 232.723 30.7227 232.067C30.7227 231.45 30.5534 230.954 30.2148 230.582C29.8805 230.205 29.4341 230.017 28.8755 230.017C28.3634 230.017 27.9614 230.129 27.6694 230.354L27.3584 230.607L26.4189 230.366ZM35.2168 231.82L34.4805 232.588V235H33.3062V225.25H34.4805V231.147L35.1089 230.392L37.248 228.132H38.6763L36.0039 231.001L38.9873 235H37.6099L35.2168 231.82Z" fill="#637381"/>
<path opacity="0.85" d="M22.439 290H21.2583V282.173L18.8906 283.043V281.977L22.2549 280.713H22.439V290ZM31.6748 286.058C31.6748 287.433 31.4399 288.455 30.9702 289.124C30.5005 289.793 29.7663 290.127 28.7676 290.127C27.7816 290.127 27.0516 289.801 26.5776 289.149C26.1037 288.493 25.8582 287.516 25.8413 286.217V284.649C25.8413 283.291 26.0762 282.281 26.5459 281.621C27.0156 280.961 27.752 280.631 28.7549 280.631C29.7493 280.631 30.4814 280.95 30.9512 281.589C31.4209 282.224 31.6621 283.206 31.6748 284.535V286.058ZM30.5005 284.452C30.5005 283.458 30.3608 282.734 30.0815 282.281C29.8022 281.824 29.36 281.596 28.7549 281.596C28.154 281.596 27.716 281.822 27.4409 282.275C27.1659 282.728 27.0241 283.424 27.0156 284.363V286.242C27.0156 287.241 27.1595 287.979 27.4473 288.458C27.7393 288.931 28.1794 289.168 28.7676 289.168C29.3473 289.168 29.7769 288.944 30.0562 288.496C30.3397 288.047 30.4878 287.34 30.5005 286.375V284.452ZM35.2168 286.82L34.4805 287.588V290H33.3062V280.25H34.4805V286.147L35.1089 285.392L37.248 283.132H38.6763L36.0039 286.001L38.9873 290H37.6099L35.2168 286.82Z" fill="#637381"/>
<path opacity="0.85" d="M26.4189 340.366L26.8887 335.758H31.624V336.843H27.8853L27.606 339.363C28.0588 339.097 28.5729 338.963 29.1484 338.963C29.9906 338.963 30.6592 339.243 31.1543 339.801C31.6494 340.356 31.897 341.107 31.897 342.055C31.897 343.007 31.6388 343.758 31.1226 344.308C30.6105 344.854 29.8932 345.127 28.9707 345.127C28.154 345.127 27.4875 344.901 26.9712 344.448C26.4549 343.995 26.1608 343.369 26.0889 342.569H27.1997C27.2716 343.098 27.46 343.498 27.7646 343.769C28.0693 344.035 28.4714 344.168 28.9707 344.168C29.5166 344.168 29.944 343.982 30.2529 343.61C30.5661 343.237 30.7227 342.723 30.7227 342.067C30.7227 341.45 30.5534 340.954 30.2148 340.582C29.8805 340.205 29.4341 340.017 28.8755 340.017C28.3634 340.017 27.9614 340.129 27.6694 340.354L27.3584 340.607L26.4189 340.366ZM35.2168 341.82L34.4805 342.588V345H33.3062V335.25H34.4805V341.147L35.1089 340.392L37.248 338.132H38.6763L36.0039 341.001L38.9873 345H37.6099L35.2168 341.82Z" fill="#637381"/>
<path opacity="0.85" d="M38.2637 397.058C38.2637 398.433 38.0288 399.455 37.5591 400.124C37.0894 400.793 36.3551 401.127 35.3564 401.127C34.3704 401.127 33.6405 400.801 33.1665 400.149C32.6925 399.493 32.4471 398.516 32.4302 397.217V395.649C32.4302 394.291 32.665 393.281 33.1348 392.621C33.6045 391.961 34.3408 391.631 35.3438 391.631C36.3382 391.631 37.0703 391.95 37.54 392.589C38.0098 393.224 38.251 394.206 38.2637 395.535V397.058ZM37.0894 395.452C37.0894 394.458 36.9497 393.734 36.6704 393.281C36.3911 392.824 35.9489 392.596 35.3438 392.596C34.7428 392.596 34.3049 392.822 34.0298 393.275C33.7547 393.728 33.613 394.424 33.6045 395.363V397.242C33.6045 398.241 33.7484 398.979 34.0361 399.458C34.3281 399.931 34.7682 400.168 35.3564 400.168C35.9362 400.168 36.3657 399.944 36.645 399.496C36.9285 399.047 37.0767 398.34 37.0894 397.375V395.452Z" fill="#637381"/>
</g>
<path d="M122.852 420H121.581V411.571L119.031 412.508V411.359L122.654 409.999H122.852V420ZM135.406 417.402H131.236L130.3 420H128.946L132.747 410.047H133.896L137.703 420H136.357L135.406 417.402ZM131.633 416.322H135.017L133.321 411.667L131.633 416.322ZM143.105 419.269C142.613 419.847 141.891 420.137 140.938 420.137C140.15 420.137 139.548 419.909 139.134 419.453C138.723 418.993 138.516 418.314 138.511 417.416V412.604H139.776V417.382C139.776 418.503 140.232 419.063 141.143 419.063C142.109 419.063 142.752 418.703 143.071 417.983V412.604H144.336V420H143.133L143.105 419.269ZM145.739 416.24C145.739 415.087 146.005 414.171 146.538 413.492C147.072 412.809 147.778 412.467 148.658 412.467C149.56 412.467 150.264 412.786 150.77 413.424L150.831 412.604H151.987V419.822C151.987 420.779 151.702 421.534 151.132 422.085C150.567 422.636 149.806 422.912 148.849 422.912C148.316 422.912 147.794 422.798 147.284 422.57C146.773 422.342 146.384 422.03 146.115 421.634L146.771 420.875C147.313 421.545 147.976 421.88 148.76 421.88C149.375 421.88 149.854 421.707 150.196 421.36C150.542 421.014 150.715 420.526 150.715 419.897V419.262C150.209 419.845 149.519 420.137 148.644 420.137C147.778 420.137 147.076 419.788 146.538 419.091C146.005 418.394 145.739 417.443 145.739 416.24ZM147.01 416.384C147.01 417.218 147.181 417.874 147.523 418.353C147.865 418.826 148.343 419.063 148.958 419.063C149.756 419.063 150.342 418.701 150.715 417.977V414.6C150.328 413.893 149.747 413.54 148.972 413.54C148.357 413.54 147.876 413.779 147.53 414.258C147.183 414.736 147.01 415.445 147.01 416.384Z" fill="#A6B1BB"/>
<path d="M282.621 420H276.1V419.091L279.545 415.263C280.056 414.684 280.407 414.215 280.598 413.854C280.794 413.49 280.892 413.114 280.892 412.727C280.892 412.207 280.735 411.781 280.42 411.448C280.106 411.116 279.687 410.949 279.163 410.949C278.534 410.949 278.044 411.129 277.693 411.489C277.346 411.845 277.173 412.341 277.173 412.979H275.909C275.909 412.063 276.203 411.323 276.79 410.758C277.383 410.193 278.174 409.91 279.163 409.91C280.088 409.91 280.819 410.154 281.357 410.642C281.895 411.125 282.163 411.77 282.163 412.576C282.163 413.556 281.539 414.723 280.29 416.076L277.624 418.968H282.621V420ZM292.81 417.402H288.64L287.704 420H286.35L290.151 410.047H291.299L295.107 420H293.76L292.81 417.402ZM289.037 416.322H292.421L290.725 411.667L289.037 416.322ZM300.509 419.269C300.017 419.847 299.295 420.137 298.342 420.137C297.554 420.137 296.952 419.909 296.537 419.453C296.127 418.993 295.92 418.314 295.915 417.416V412.604H297.18V417.382C297.18 418.503 297.636 419.063 298.547 419.063C299.513 419.063 300.156 418.703 300.475 417.983V412.604H301.74V420H300.536L300.509 419.269ZM303.142 416.24C303.142 415.087 303.409 414.171 303.942 413.492C304.475 412.809 305.182 412.467 306.061 412.467C306.964 412.467 307.668 412.786 308.174 413.424L308.235 412.604H309.391V419.822C309.391 420.779 309.106 421.534 308.536 422.085C307.971 422.636 307.21 422.912 306.253 422.912C305.72 422.912 305.198 422.798 304.687 422.57C304.177 422.342 303.787 422.03 303.518 421.634L304.175 420.875C304.717 421.545 305.38 421.88 306.164 421.88C306.779 421.88 307.258 421.707 307.6 421.36C307.946 421.014 308.119 420.526 308.119 419.897V419.262C307.613 419.845 306.923 420.137 306.048 420.137C305.182 420.137 304.48 419.788 303.942 419.091C303.409 418.394 303.142 417.443 303.142 416.24ZM304.414 416.384C304.414 417.218 304.585 417.874 304.927 418.353C305.268 418.826 305.747 419.063 306.362 419.063C307.16 419.063 307.745 418.701 308.119 417.977V414.6C307.732 413.893 307.151 413.54 306.376 413.54C305.761 413.54 305.28 413.779 304.934 414.258C304.587 414.736 304.414 415.445 304.414 416.384Z" fill="#A6B1BB"/>
<path d="M433.387 414.408H434.338C434.935 414.399 435.404 414.242 435.746 413.937C436.088 413.631 436.258 413.219 436.258 412.699C436.258 411.533 435.677 410.949 434.515 410.949C433.968 410.949 433.531 411.106 433.203 411.421C432.879 411.731 432.717 412.143 432.717 412.658H431.453C431.453 411.87 431.74 411.216 432.314 410.696C432.893 410.172 433.627 409.91 434.515 409.91C435.454 409.91 436.19 410.159 436.723 410.655C437.257 411.152 437.523 411.842 437.523 412.727C437.523 413.16 437.382 413.579 437.099 413.984C436.821 414.39 436.441 414.693 435.958 414.894C436.505 415.067 436.926 415.354 437.222 415.755C437.523 416.156 437.673 416.646 437.673 417.225C437.673 418.118 437.382 418.826 436.798 419.351C436.215 419.875 435.456 420.137 434.522 420.137C433.588 420.137 432.827 419.884 432.239 419.378C431.656 418.872 431.364 418.204 431.364 417.375H432.635C432.635 417.899 432.806 418.318 433.148 418.633C433.49 418.947 433.948 419.104 434.522 419.104C435.133 419.104 435.6 418.945 435.923 418.626C436.247 418.307 436.409 417.849 436.409 417.252C436.409 416.673 436.231 416.229 435.876 415.919C435.52 415.609 435.007 415.45 434.338 415.44H433.387V414.408ZM448.259 417.402H444.089L443.152 420H441.799L445.6 410.047H446.748L450.556 420H449.209L448.259 417.402ZM444.485 416.322H447.869L446.174 411.667L444.485 416.322ZM455.958 419.269C455.465 419.847 454.743 420.137 453.791 420.137C453.002 420.137 452.401 419.909 451.986 419.453C451.576 418.993 451.368 418.314 451.364 417.416V412.604H452.628V417.382C452.628 418.503 453.084 419.063 453.996 419.063C454.962 419.063 455.604 418.703 455.923 417.983V412.604H457.188V420H455.985L455.958 419.269ZM458.591 416.24C458.591 415.087 458.858 414.171 459.391 413.492C459.924 412.809 460.63 412.467 461.51 412.467C462.412 412.467 463.116 412.786 463.622 413.424L463.684 412.604H464.839V419.822C464.839 420.779 464.554 421.534 463.985 422.085C463.419 422.636 462.658 422.912 461.701 422.912C461.168 422.912 460.646 422.798 460.136 422.57C459.625 422.342 459.236 422.03 458.967 421.634L459.623 420.875C460.166 421.545 460.829 421.88 461.612 421.88C462.228 421.88 462.706 421.707 463.048 421.36C463.394 421.014 463.568 420.526 463.568 419.897V419.262C463.062 419.845 462.371 420.137 461.496 420.137C460.63 420.137 459.929 419.788 459.391 419.091C458.858 418.394 458.591 417.443 458.591 416.24ZM459.862 416.384C459.862 417.218 460.033 417.874 460.375 418.353C460.717 418.826 461.195 419.063 461.811 419.063C462.608 419.063 463.194 418.701 463.568 417.977V414.6C463.18 413.893 462.599 413.54 461.824 413.54C461.209 413.54 460.728 413.779 460.382 414.258C460.036 414.736 459.862 415.445 459.862 416.384Z" fill="#A6B1BB"/>
<path d="M593.802 416.657H595.183V417.689H593.802V420H592.531V417.689H587.999V416.944L592.456 410.047H593.802V416.657ZM589.434 416.657H592.531V411.776L592.38 412.05L589.434 416.657ZM605.174 417.402H601.004L600.067 420H598.714L602.514 410.047H603.663L607.47 420H606.124L605.174 417.402ZM601.4 416.322H604.784L603.089 411.667L601.4 416.322ZM612.872 419.269C612.38 419.847 611.658 420.137 610.705 420.137C609.917 420.137 609.315 419.909 608.901 419.453C608.491 418.993 608.283 418.314 608.279 417.416V412.604H609.543V417.382C609.543 418.503 609.999 419.063 610.91 419.063C611.877 419.063 612.519 418.703 612.838 417.983V412.604H614.103V420H612.9L612.872 419.269ZM615.506 416.24C615.506 415.087 615.772 414.171 616.306 413.492C616.839 412.809 617.545 412.467 618.425 412.467C619.327 412.467 620.031 412.786 620.537 413.424L620.599 412.604H621.754V419.822C621.754 420.779 621.469 421.534 620.899 422.085C620.334 422.636 619.573 422.912 618.616 422.912C618.083 422.912 617.561 422.798 617.051 422.57C616.54 422.342 616.151 422.03 615.882 421.634L616.538 420.875C617.08 421.545 617.743 421.88 618.527 421.88C619.143 421.88 619.621 421.707 619.963 421.36C620.309 421.014 620.482 420.526 620.482 419.897V419.262C619.977 419.845 619.286 420.137 618.411 420.137C617.545 420.137 616.843 419.788 616.306 419.091C615.772 418.394 615.506 417.443 615.506 416.24ZM616.777 416.384C616.777 417.218 616.948 417.874 617.29 418.353C617.632 418.826 618.11 419.063 618.726 419.063C619.523 419.063 620.109 418.701 620.482 417.977V414.6C620.095 413.893 619.514 413.54 618.739 413.54C618.124 413.54 617.643 413.779 617.297 414.258C616.95 414.736 616.777 415.445 616.777 416.384Z" fill="#A6B1BB"/>
<path d="M744.982 415.01L745.487 410.047H750.587V411.216H746.561L746.26 413.93C746.748 413.643 747.301 413.499 747.921 413.499C748.828 413.499 749.548 413.8 750.081 414.401C750.614 414.998 750.881 415.807 750.881 416.828C750.881 417.854 750.603 418.662 750.047 419.255C749.496 419.843 748.723 420.137 747.73 420.137C746.85 420.137 746.132 419.893 745.576 419.405C745.02 418.918 744.704 418.243 744.626 417.382H745.822C745.9 417.951 746.103 418.382 746.431 418.674C746.759 418.961 747.192 419.104 747.73 419.104C748.318 419.104 748.778 418.904 749.111 418.503C749.448 418.102 749.616 417.548 749.616 416.842C749.616 416.176 749.434 415.643 749.069 415.242C748.709 414.837 748.229 414.634 747.627 414.634C747.076 414.634 746.643 414.755 746.328 414.996L745.993 415.27L744.982 415.01ZM761.111 417.402H756.941L756.004 420H754.651L758.452 410.047H759.6L763.408 420H762.061L761.111 417.402ZM757.337 416.322H760.721L759.026 411.667L757.337 416.322ZM768.81 419.269C768.317 419.847 767.595 420.137 766.643 420.137C765.854 420.137 765.253 419.909 764.838 419.453C764.428 418.993 764.22 418.314 764.216 417.416V412.604H765.48V417.382C765.48 418.503 765.936 419.063 766.848 419.063C767.814 419.063 768.456 418.703 768.775 417.983V412.604H770.04V420H768.837L768.81 419.269ZM771.443 416.24C771.443 415.087 771.71 414.171 772.243 413.492C772.776 412.809 773.482 412.467 774.362 412.467C775.264 412.467 775.968 412.786 776.474 413.424L776.536 412.604H777.691V419.822C777.691 420.779 777.406 421.534 776.837 422.085C776.271 422.636 775.51 422.912 774.553 422.912C774.02 422.912 773.498 422.798 772.988 422.57C772.478 422.342 772.088 422.03 771.819 421.634L772.475 420.875C773.018 421.545 773.681 421.88 774.465 421.88C775.08 421.88 775.558 421.707 775.9 421.36C776.246 421.014 776.42 420.526 776.42 419.897V419.262C775.914 419.845 775.223 420.137 774.348 420.137C773.482 420.137 772.781 419.788 772.243 419.091C771.71 418.394 771.443 417.443 771.443 416.24ZM772.715 416.384C772.715 417.218 772.885 417.874 773.227 418.353C773.569 418.826 774.048 419.063 774.663 419.063C775.46 419.063 776.046 418.701 776.42 417.977V414.6C776.032 413.893 775.451 413.54 774.676 413.54C774.061 413.54 773.58 413.779 773.234 414.258C772.888 414.736 772.715 415.445 772.715 416.384Z" fill="#A6B1BB"/>
<path d="M905.79 410.04V411.113H905.557C904.573 411.132 903.789 411.423 903.206 411.988C902.622 412.553 902.285 413.349 902.194 414.374C902.718 413.772 903.434 413.472 904.34 413.472C905.206 413.472 905.897 413.777 906.412 414.388C906.931 414.998 907.191 415.787 907.191 416.753C907.191 417.778 906.911 418.599 906.35 419.214C905.794 419.829 905.047 420.137 904.108 420.137C903.156 420.137 902.383 419.772 901.791 419.043C901.198 418.309 900.902 417.366 900.902 416.213V415.728C900.902 413.896 901.292 412.496 902.071 411.53C902.855 410.56 904.019 410.063 905.564 410.04H905.79ZM904.129 414.524C903.696 414.524 903.297 414.654 902.932 414.914C902.568 415.174 902.315 415.5 902.173 415.892V416.356C902.173 417.177 902.358 417.838 902.727 418.339C903.096 418.84 903.557 419.091 904.108 419.091C904.678 419.091 905.124 418.881 905.448 418.462C905.776 418.043 905.94 417.493 905.94 416.814C905.94 416.131 905.774 415.579 905.441 415.16C905.113 414.736 904.675 414.524 904.129 414.524ZM917.537 417.402H913.367L912.431 420H911.077L914.878 410.047H916.026L919.834 420H918.487L917.537 417.402ZM913.764 416.322H917.147L915.452 411.667L913.764 416.322ZM925.236 419.269C924.744 419.847 924.021 420.137 923.069 420.137C922.28 420.137 921.679 419.909 921.264 419.453C920.854 418.993 920.647 418.314 920.642 417.416V412.604H921.907V417.382C921.907 418.503 922.362 419.063 923.274 419.063C924.24 419.063 924.883 418.703 925.202 417.983V412.604H926.466V420H925.263L925.236 419.269ZM927.869 416.24C927.869 415.087 928.136 414.171 928.669 413.492C929.202 412.809 929.909 412.467 930.788 412.467C931.691 412.467 932.395 412.786 932.901 413.424L932.962 412.604H934.117V419.822C934.117 420.779 933.833 421.534 933.263 422.085C932.698 422.636 931.937 422.912 930.98 422.912C930.446 422.912 929.925 422.798 929.414 422.57C928.904 422.342 928.514 422.03 928.245 421.634L928.902 420.875C929.444 421.545 930.107 421.88 930.891 421.88C931.506 421.88 931.985 421.707 932.326 421.36C932.673 421.014 932.846 420.526 932.846 419.897V419.262C932.34 419.845 931.65 420.137 930.775 420.137C929.909 420.137 929.207 419.788 928.669 419.091C928.136 418.394 927.869 417.443 927.869 416.24ZM929.141 416.384C929.141 417.218 929.312 417.874 929.653 418.353C929.995 418.826 930.474 419.063 931.089 419.063C931.887 419.063 932.472 418.701 932.846 417.977V414.6C932.458 413.893 931.877 413.54 931.103 413.54C930.487 413.54 930.007 413.779 929.66 414.258C929.314 414.736 929.141 415.445 929.141 416.384Z" fill="#A6B1BB"/>
<path d="M1063.19 410.04V411.113H1062.96C1061.98 411.132 1061.19 411.423 1060.61 411.988C1060.03 412.553 1059.69 413.349 1059.6 414.374C1060.12 413.772 1060.84 413.472 1061.74 413.472C1062.61 413.472 1063.3 413.777 1063.82 414.388C1064.33 414.998 1064.59 415.787 1064.59 416.753C1064.59 417.778 1064.31 418.599 1063.75 419.214C1063.2 419.829 1062.45 420.137 1061.51 420.137C1060.56 420.137 1059.79 419.772 1059.19 419.043C1058.6 418.309 1058.31 417.366 1058.31 416.213V415.728C1058.31 413.896 1058.7 412.496 1059.47 411.53C1060.26 410.56 1061.42 410.063 1062.97 410.04H1063.19ZM1061.53 414.524C1061.1 414.524 1060.7 414.654 1060.34 414.914C1059.97 415.174 1059.72 415.5 1059.58 415.892V416.356C1059.58 417.177 1059.76 417.838 1060.13 418.339C1060.5 418.84 1060.96 419.091 1061.51 419.091C1062.08 419.091 1062.53 418.881 1062.85 418.462C1063.18 418.043 1063.34 417.493 1063.34 416.814C1063.34 416.131 1063.18 415.579 1062.84 415.16C1062.52 414.736 1062.08 414.524 1061.53 414.524ZM1074.94 417.402H1070.77L1069.83 420H1068.48L1072.28 410.047H1073.43L1077.24 420H1075.89L1074.94 417.402ZM1071.17 416.322H1074.55L1072.86 411.667L1071.17 416.322ZM1082.64 419.269C1082.15 419.847 1081.42 420.137 1080.47 420.137C1079.68 420.137 1079.08 419.909 1078.67 419.453C1078.26 418.993 1078.05 418.314 1078.05 417.416V412.604H1079.31V417.382C1079.31 418.503 1079.77 419.063 1080.68 419.063C1081.64 419.063 1082.29 418.703 1082.61 417.983V412.604H1083.87V420H1082.67L1082.64 419.269ZM1085.27 416.24C1085.27 415.087 1085.54 414.171 1086.07 413.492C1086.61 412.809 1087.31 412.467 1088.19 412.467C1089.09 412.467 1089.8 412.786 1090.3 413.424L1090.37 412.604H1091.52V419.822C1091.52 420.779 1091.24 421.534 1090.67 422.085C1090.1 422.636 1089.34 422.912 1088.38 422.912C1087.85 422.912 1087.33 422.798 1086.82 422.57C1086.31 422.342 1085.92 422.03 1085.65 421.634L1086.31 420.875C1086.85 421.545 1087.51 421.88 1088.29 421.88C1088.91 421.88 1089.39 421.707 1089.73 421.36C1090.08 421.014 1090.25 420.526 1090.25 419.897V419.262C1089.74 419.845 1089.05 420.137 1088.18 420.137C1087.31 420.137 1086.61 419.788 1086.07 419.091C1085.54 418.394 1085.27 417.443 1085.27 416.24ZM1086.54 416.384C1086.54 417.218 1086.72 417.874 1087.06 418.353C1087.4 418.826 1087.88 419.063 1088.49 419.063C1089.29 419.063 1089.88 418.701 1090.25 417.977V414.6C1089.86 413.893 1089.28 413.54 1088.51 413.54C1087.89 413.54 1087.41 413.779 1087.06 414.258C1086.72 414.736 1086.54 415.445 1086.54 416.384Z" fill="#A6B1BB"/>
<path fill-rule="evenodd" clip-rule="evenodd" d="M108 220C108 217.791 109.791 216 112 216H118C120.209 216 122 217.791 122 220V405H108V220Z" fill="#1665D8"/>
<path d="M129 284C129 281.791 130.791 280 133 280H139C141.209 280 143 281.791 143 284V405H129V284Z" fill="#EDF0F2"/>
<path fill-rule="evenodd" clip-rule="evenodd" d="M267 355C267 352.791 268.791 351 271 351H277C279.209 351 281 352.791 281 355V405H267V355Z" fill="#1665D8"/>
<path d="M288 187C288 184.791 289.791 183 292 183H298C300.209 183 302 184.791 302 187V405H288V187Z" fill="#EDF0F2"/>
<path fill-rule="evenodd" clip-rule="evenodd" d="M428 200C428 197.791 429.791 196 432 196H438C440.209 196 442 197.791 442 200V405H428V200Z" fill="#1665D8"/>
<path d="M449 273C449 270.791 450.791 269 453 269H459C461.209 269 463 270.791 463 273V405H449V273Z" fill="#EDF0F2"/>
<path fill-rule="evenodd" clip-rule="evenodd" d="M587 109C587 106.791 588.791 105 591 105H597C599.209 105 601 106.791 601 109V405H587V109Z" fill="#1665D8"/>
<path d="M608 83C608 80.7909 609.791 79 612 79H618C620.209 79 622 80.7909 622 83V405H608V83Z" fill="#EDF0F2"/>
<path fill-rule="evenodd" clip-rule="evenodd" d="M749 89C749 86.7909 750.791 85 753 85H759C761.209 85 763 86.7909 763 89V405H749V89Z" fill="#1665D8"/>
<path d="M770 83C770 80.7909 771.791 79 774 79H780C782.209 79 784 80.7909 784 83V405H770V83Z" fill="#EDF0F2"/>
<path fill-rule="evenodd" clip-rule="evenodd" d="M909 200C909 197.791 910.791 196 913 196H919C921.209 196 923 197.791 923 200V405H909V200Z" fill="#1665D8"/>
<path d="M930 134C930 131.791 931.791 130 934 130H940C942.209 130 944 131.791 944 134V405H930V134Z" fill="#EDF0F2"/>
<path fill-rule="evenodd" clip-rule="evenodd" d="M1068 200C1068 197.791 1069.79 196 1072 196H1078C1080.21 196 1082 197.791 1082 200V405H1068V200Z" fill="#1665D8"/>
<path d="M1089 262C1089 259.791 1090.79 258 1093 258H1099C1101.21 258 1103 259.791 1103 262V405H1089V262Z" fill="#EDF0F2"/>
</g>
<defs>
<clipPath id="clip0_0_1094">
<rect width="1138" height="423" fill="white"/>
</clipPath>
<clipPath id="clip1_0_1094">
<rect width="1079.34" height="396" fill="white" transform="translate(58.6599 9)"/>
</clipPath>
</defs>
</svg>
