<svg width="11" height="16" viewBox="0 0 11 16" fill="none" xmlns="http://www.w3.org/2000/svg">
<path fill-rule="evenodd" clip-rule="evenodd" d="M0.543031 5.707C0.35556 5.51947 0.250244 5.26516 0.250244 5C0.250244 4.73484 0.35556 4.48053 0.543031 4.293L4.54303 0.293C4.73056 0.105529 4.98487 0.000213623 5.25003 0.000213623C5.51519 0.000213623 5.7695 0.105529 5.95703 0.293L9.95703 4.293C10.1392 4.4816 10.24 4.7342 10.2377 4.9964C10.2354 5.2586 10.1303 5.50941 9.94485 5.69482C9.75944 5.88023 9.50863 5.9854 9.24643 5.98767C8.98423 5.98995 8.73163 5.88916 8.54303 5.707L6.25003 3.414V15C6.25003 15.2652 6.14467 15.5196 5.95714 15.7071C5.7696 15.8946 5.51525 16 5.25003 16C4.98481 16 4.73046 15.8946 4.54292 15.7071C4.35539 15.5196 4.25003 15.2652 4.25003 15V3.414L1.95703 5.707C1.7695 5.89447 1.51519 5.99979 1.25003 5.99979C0.984866 5.99979 0.730558 5.89447 0.543031 5.707Z" fill="#F76659"/>
</svg>
