<svg width="12" height="13" viewBox="0 0 12 13" fill="none" xmlns="http://www.w3.org/2000/svg">
<path fill-rule="evenodd" clip-rule="evenodd" d="M0.293031 12.707C0.10556 12.5195 0.000244141 12.2652 0.000244141 12C0.000244141 11.7349 0.10556 11.4806 0.293031 11.293L5.29303 6.29303C5.48056 6.10556 5.73487 6.00024 6.00003 6.00024C6.26519 6.00024 6.5195 6.10556 6.70703 6.29303L11.707 11.293C11.8892 11.4816 11.99 11.7342 11.9877 11.9964C11.9854 12.2586 11.8803 12.5094 11.6948 12.6948C11.5094 12.8803 11.2586 12.9854 10.9964 12.9877C10.7342 12.99 10.4816 12.8892 10.293 12.707L6.00003 8.41403L1.70703 12.707C1.5195 12.8945 1.26519 12.9998 1.00003 12.9998C0.734866 12.9998 0.480558 12.8945 0.293031 12.707ZM0.293031 6.70703C0.10556 6.5195 0.000244141 6.26519 0.000244141 6.00003C0.000244141 5.73487 0.10556 5.48056 0.293031 5.29303L5.29303 0.293031C5.48056 0.105559 5.73487 0.000244141 6.00003 0.000244141C6.26519 0.000244141 6.5195 0.105559 6.70703 0.293031L11.707 5.29303C11.8892 5.48163 11.99 5.73423 11.9877 5.99643C11.9854 6.25863 11.8803 6.50944 11.6948 6.69485C11.5094 6.88026 11.2586 6.98543 10.9964 6.9877C10.7342 6.98998 10.4816 6.88919 10.293 6.70703L6.00003 2.41403L1.70703 6.70703C1.5195 6.8945 1.26519 6.99982 1.00003 6.99982C0.734866 6.99982 0.480558 6.8945 0.293031 6.70703Z" fill="#F76659"/>
</svg>
