<svg width="1076" height="585" viewBox="0 0 1076 585" fill="none" xmlns="http://www.w3.org/2000/svg">
<g clip-path="url(#clip0_29036_6001)">
<path d="M541.447 584.231C832.777 584.231 1068.95 568.596 1068.95 549.309C1068.95 530.023 832.777 514.388 541.447 514.388C250.117 514.388 13.9473 530.023 13.9473 549.309C13.9473 568.596 250.117 584.231 541.447 584.231Z" fill="#F2F2F2"/>
<path d="M521.229 167.01C435.285 167.01 373.578 222.149 373.578 350.808C373.578 496.621 435.285 535.218 521.229 535.218C607.173 535.218 672.556 492.945 672.556 350.808C672.556 198.868 607.173 167.01 521.229 167.01ZM521.794 486.818C462.267 486.818 431.168 451.895 431.168 350.902C431.168 261.79 463.54 214.797 523.067 214.797C582.594 214.797 614.966 245.665 614.966 350.902C614.966 449.349 581.321 486.818 521.794 486.818Z" fill="#2F2E41"/>
<path d="M322.115 433.517H286.581V328.877C286.581 323.32 284.373 317.989 280.443 314.059C276.513 310.129 271.183 307.922 265.625 307.922H257.299C254.547 307.922 251.822 308.464 249.279 309.517C246.737 310.57 244.427 312.113 242.481 314.059C240.535 316.005 238.991 318.315 237.938 320.858C236.885 323.4 236.343 326.125 236.343 328.877V433.517H136.113C134.051 433.517 132.024 432.984 130.229 431.97C128.433 430.955 126.931 429.494 125.866 427.728C124.802 425.962 124.212 423.951 124.154 421.89C124.096 419.829 124.572 417.788 125.535 415.965L231.618 215.184C232.94 212.681 233.742 209.936 233.974 207.114C234.206 204.293 233.865 201.453 232.969 198.768C232.074 196.082 230.644 193.605 228.765 191.487C226.886 189.37 224.597 187.654 222.037 186.446L215.775 183.488C210.912 181.192 205.353 180.853 200.248 182.541C195.142 184.23 190.881 187.816 188.346 192.558L58.9642 434.591C56.761 438.712 55.6084 443.314 55.6084 447.987C55.6084 451.719 56.3434 455.414 57.7714 458.861C59.1995 462.309 61.2926 465.441 63.9312 468.08C66.5699 470.719 69.7024 472.812 73.15 474.24C76.5975 475.668 80.2926 476.403 84.0242 476.403H236.343V542.57C236.343 545.869 236.993 549.135 238.255 552.183C239.517 555.23 241.368 557.999 243.7 560.332C246.033 562.664 248.802 564.515 251.849 565.777C254.897 567.039 258.163 567.689 261.462 567.689H261.462C264.761 567.689 268.027 567.039 271.075 565.777C274.122 564.515 276.891 562.664 279.224 560.332C281.556 557.999 283.407 555.23 284.669 552.183C285.931 549.135 286.581 545.869 286.581 542.57V476.403H322.115C327.802 476.403 333.257 474.144 337.278 470.122C341.299 466.101 343.558 460.647 343.558 454.96C343.558 449.273 341.299 443.819 337.278 439.797C333.257 435.776 327.802 433.517 322.115 433.517Z" fill="#6C63FF"/>
<path d="M980.111 433.517H944.577V328.877C944.577 323.32 942.369 317.989 938.439 314.059C934.509 310.129 929.179 307.922 923.621 307.922H915.295C912.543 307.922 909.818 308.464 907.276 309.517C904.733 310.57 902.423 312.113 900.477 314.059C898.531 316.005 896.987 318.315 895.934 320.858C894.881 323.4 894.339 326.125 894.339 328.877V433.517H794.109C792.047 433.517 790.02 432.984 788.225 431.97C786.429 430.955 784.927 429.494 783.863 427.728C782.798 425.962 782.208 423.951 782.15 421.89C782.092 419.829 782.568 417.788 783.531 415.965L889.614 215.184C890.936 212.681 891.738 209.936 891.97 207.114C892.203 204.293 891.861 201.453 890.965 198.768C890.07 196.082 888.64 193.605 886.761 191.487C884.882 189.37 882.593 187.654 880.033 186.446L873.771 183.488C868.908 181.192 863.349 180.853 858.244 182.541C853.138 184.23 848.877 187.816 846.342 192.558L716.96 434.591C714.757 438.712 713.604 443.314 713.604 447.987C713.604 455.523 716.598 462.751 721.927 468.08C727.256 473.409 734.484 476.403 742.02 476.403H894.339V542.57C894.339 549.232 896.986 555.621 901.696 560.332C906.407 565.043 912.796 567.689 919.458 567.689C926.12 567.689 932.509 565.043 937.22 560.332C941.931 555.621 944.577 549.232 944.577 542.57V476.403H980.111C985.798 476.403 991.253 474.144 995.274 470.122C999.295 466.101 1001.55 460.647 1001.55 454.96C1001.55 449.273 999.295 443.819 995.274 439.797C991.253 435.776 985.798 433.517 980.111 433.517Z" fill="#6C63FF"/>
<path d="M331.917 421.264H296.383V316.624C296.383 313.872 295.841 311.147 294.788 308.605C293.735 306.062 292.191 303.752 290.245 301.806C288.299 299.86 285.989 298.317 283.446 297.263C280.904 296.21 278.179 295.668 275.427 295.668H267.101C261.543 295.668 256.213 297.876 252.283 301.806C248.353 305.736 246.145 311.066 246.145 316.624V421.264H145.915C143.853 421.264 141.826 420.731 140.031 419.716C138.235 418.702 136.733 417.241 135.668 415.475C134.604 413.709 134.014 411.698 133.956 409.637C133.898 407.576 134.374 405.535 135.337 403.712L241.419 202.931C242.742 200.428 243.544 197.683 243.776 194.861C244.008 192.04 243.666 189.2 242.771 186.514C241.876 183.828 240.445 181.352 238.567 179.234C236.688 177.116 234.399 175.401 231.839 174.192L225.577 171.235C220.714 168.939 215.155 168.6 210.049 170.288C204.944 171.976 200.683 175.563 198.147 180.305L68.766 422.338C66.5628 426.459 65.4102 431.06 65.4102 435.734V435.734C65.4102 443.27 68.404 450.498 73.733 455.827C79.062 461.156 86.2896 464.15 93.826 464.15H246.145V530.317C246.145 533.616 246.794 536.882 248.057 539.93C249.319 542.977 251.169 545.746 253.502 548.079C255.834 550.411 258.604 552.262 261.651 553.524C264.699 554.786 267.965 555.436 271.264 555.436H271.264C277.926 555.436 284.315 552.789 289.026 548.079C293.736 543.368 296.383 536.979 296.383 530.317V464.15H331.917C334.733 464.15 337.521 463.595 340.123 462.517C342.725 461.44 345.088 459.86 347.08 457.869C349.071 455.878 350.65 453.514 351.728 450.913C352.806 448.311 353.36 445.523 353.36 442.707V442.707C353.36 439.891 352.806 437.102 351.728 434.501C350.65 431.899 349.071 429.535 347.08 427.544C345.089 425.553 342.725 423.973 340.123 422.896C337.521 421.818 334.733 421.264 331.917 421.264V421.264Z" stroke="#3F3D56" stroke-miterlimit="10"/>
<path d="M998.491 421.264H962.957V316.624C962.957 311.066 960.749 305.736 956.819 301.806C952.889 297.876 947.559 295.668 942.001 295.668H933.675C930.923 295.668 928.198 296.21 925.655 297.263C923.113 298.317 920.803 299.86 918.857 301.806C916.911 303.752 915.367 306.062 914.314 308.605C913.261 311.147 912.719 313.872 912.719 316.624V421.264H812.489C810.427 421.264 808.4 420.731 806.605 419.716C804.809 418.702 803.307 417.241 802.242 415.475C801.178 413.709 800.588 411.698 800.53 409.637C800.472 407.576 800.948 405.535 801.911 403.712L907.994 202.931C909.316 200.428 910.118 197.683 910.35 194.861C910.583 192.04 910.241 189.2 909.345 186.514C908.45 183.828 907.02 181.352 905.141 179.234C903.262 177.116 900.973 175.401 898.413 174.192L892.151 171.235C887.288 168.939 881.729 168.6 876.624 170.288C871.518 171.976 867.257 175.563 864.722 180.305L735.34 422.338C733.137 426.459 731.984 431.06 731.984 435.734C731.984 443.27 734.978 450.498 740.307 455.827C745.636 461.156 752.864 464.15 760.4 464.15H912.719V530.317C912.719 536.979 915.365 543.368 920.076 548.079C924.787 552.789 931.176 555.436 937.838 555.436V555.436C944.5 555.436 950.889 552.789 955.6 548.079C960.311 543.368 962.957 536.979 962.957 530.317V464.15H998.491C1001.31 464.15 1004.1 463.595 1006.7 462.517C1009.3 461.44 1011.66 459.86 1013.65 457.869C1015.64 455.878 1017.22 453.514 1018.3 450.913C1019.38 448.311 1019.93 445.523 1019.93 442.707V442.707C1019.93 437.02 1017.68 431.565 1013.65 427.544C1009.63 423.523 1004.18 421.264 998.491 421.264V421.264Z" stroke="#3F3D56" stroke-miterlimit="10"/>
<path d="M540.835 155.982C454.89 155.982 393.184 211.121 393.184 339.78C393.184 485.593 454.89 524.19 540.835 524.19C626.779 524.19 692.162 481.917 692.162 339.78C692.162 187.84 626.779 155.982 540.835 155.982ZM541.4 475.79C481.873 475.79 450.774 440.867 450.774 339.874C450.774 250.762 483.146 203.769 542.673 203.769C602.2 203.769 634.572 234.637 634.572 339.874C634.572 438.321 600.926 475.79 541.4 475.79V475.79Z" stroke="#3F3D56" stroke-miterlimit="10"/>
<path d="M471.945 31.1516C479.07 31.1516 484.846 25.3756 484.846 18.2505C484.846 11.1253 479.07 5.34927 471.945 5.34927C464.82 5.34927 459.044 11.1253 459.044 18.2505C459.044 25.3756 464.82 31.1516 471.945 31.1516Z" fill="#2F2E41"/>
<path d="M503.411 93.7695C523.396 93.7695 539.597 72.7785 539.597 46.8848C539.597 20.991 523.396 0 503.411 0C483.426 0 467.225 20.991 467.225 46.8848C467.225 72.7785 483.426 93.7695 503.411 93.7695Z" fill="#2F2E41"/>
<path opacity="0.1" d="M503.411 79.6097C485.283 79.6097 470.27 62.3392 467.635 39.8048C467.361 42.1548 467.224 44.5188 467.225 46.8848C467.225 72.7785 483.426 93.7695 503.411 93.7695C523.396 93.7695 539.597 72.7785 539.597 46.8848C539.598 44.5188 539.461 42.1548 539.187 39.8048C536.552 62.3392 521.538 79.6097 503.411 79.6097Z" fill="black"/>
<path d="M577.046 184.189C576.269 187.382 572.918 189.94 569.207 191.727C561.405 195.483 551.782 196.605 542.447 196.981C540.066 197.126 537.677 197.081 535.303 196.849C530.702 196.404 526.386 194.42 523.052 191.217C522.814 191.062 522.619 190.849 522.486 190.599C522.353 190.348 522.285 190.067 522.289 189.783C522.294 189.499 522.37 189.221 522.511 188.975C522.652 188.728 522.853 188.521 523.096 188.374C528.065 182.915 536.358 179.567 544.712 177.157C551.046 175.33 562.093 170.597 569.002 171.235C575.694 171.854 578.027 180.157 577.046 184.189Z" fill="#3F3D56"/>
<path opacity="0.1" d="M577.046 184.189C576.269 187.382 572.918 189.94 569.207 191.727C561.405 195.483 551.782 196.605 542.447 196.981C540.066 197.126 537.677 197.081 535.303 196.849C530.702 196.404 526.386 194.42 523.052 191.217C522.814 191.062 522.619 190.849 522.486 190.599C522.353 190.348 522.285 190.067 522.289 189.783C522.294 189.499 522.37 189.221 522.511 188.975C522.652 188.728 522.853 188.521 523.096 188.374C528.065 182.915 536.358 179.567 544.712 177.157C551.046 175.33 562.093 170.597 569.002 171.235C575.694 171.854 578.027 180.157 577.046 184.189Z" fill="black"/>
<path d="M477.847 160.321C475.466 164.989 475.035 170.411 476.649 175.396C478.29 180.344 481.363 184.693 485.478 187.893C495.573 195.985 509.466 197.098 522.403 196.986C533.741 196.887 545.063 196.111 556.308 194.662C560.076 194.328 563.779 193.468 567.309 192.108C571.532 190.281 575.242 186.93 576.745 182.582C578.249 178.234 577.182 172.909 573.612 170.008C570.475 167.458 566.149 167.107 562.114 166.865L539.026 165.477C541.307 163.169 544.344 161.863 547.122 160.185C550.807 157.959 553.256 154.22 555.935 150.85C560.064 145.916 564.556 141.297 569.374 137.033C570.125 141.344 572.852 144.883 576.061 147.857C579.27 150.831 582.969 153.226 586.305 156.057C594.384 162.916 600.201 172.224 608.697 178.558C614.542 177.022 620.006 174.294 624.746 170.546L621.444 164.564C621.168 163.949 620.74 163.414 620.199 163.011C619.264 162.436 618.059 162.733 616.974 162.57C614.073 162.135 612.806 158.786 611.668 156.083C608.543 148.661 602.56 142.903 597.45 136.679C593.679 132.084 590.333 127.157 587.454 121.956C585.738 118.854 584.166 115.625 581.837 112.953C579.508 110.281 576.243 108.18 572.698 108.172C569.566 108.166 566.677 109.756 563.984 111.355C555.782 116.227 547.89 121.604 540.354 127.454C536.41 130.516 532.491 133.751 527.865 135.628C525.917 136.419 523.864 136.959 521.996 137.92C518.722 139.605 516.238 142.455 513.564 144.985C504.027 154.008 490.969 159.854 477.847 160.321Z" fill="#3F3D56"/>
<path d="M526.123 96.098C526.016 98.8561 525.429 101.575 524.389 104.131C523.862 105.407 523.078 106.56 522.086 107.518C521.093 108.477 519.914 109.221 518.622 109.704C516.786 110.196 514.862 110.258 512.998 109.887C511.374 109.717 509.808 109.183 508.417 108.326C506.252 106.837 505.173 104.182 504.779 101.583C504.386 98.9866 504.562 96.334 504.311 93.7191C504.065 91.6071 503.664 89.5162 503.109 87.4637C502.939 86.7808 502.766 86.1012 502.596 85.4215C502.429 84.7418 502.265 84.0622 502.114 83.3825C501.976 82.7437 501.847 82.1018 501.737 81.4568C501.645 80.9124 501.564 80.3649 501.504 79.8142C501.449 78.1817 501.177 76.5638 500.695 75.003C500.243 73.9908 499.677 73.0333 499.009 72.149C498.722 71.74 498.445 71.3309 498.19 70.9061C497.453 69.8022 497.111 68.4816 497.218 67.1585C497.248 66.9539 497.298 66.7527 497.366 66.5575C497.391 66.482 497.419 66.4065 497.451 66.3341C497.734 66.2572 497.994 66.1124 498.208 65.9123C498.423 65.7121 498.585 65.4626 498.681 65.1855C498.79 64.5902 498.739 63.9769 498.533 63.4077C498.298 62.6123 497.976 61.8451 497.574 61.12C497.309 60.6418 496.413 59.7796 496.406 59.232C496.394 58.1307 498.546 57.2434 499.418 56.8091C502.078 55.4769 505.045 54.8753 508.014 55.0659C509.918 55.1949 511.982 55.7802 513.033 57.3755C513.977 58.8135 513.851 60.6763 514.254 62.3472C514.296 62.5901 514.399 62.8184 514.553 63.0111C514.758 63.1983 515.017 63.317 515.292 63.351C515.758 63.4437 516.236 63.4628 516.708 63.4076H516.712C516.836 63.3977 516.96 63.3799 517.083 63.3541C517.818 63.2185 518.513 62.9184 519.116 62.4762C519.506 62.3724 519.899 62.2874 520.296 62.2213C520.312 62.2197 520.327 62.2165 520.343 62.2119C521.919 67.1867 522.124 72.5202 523.414 77.5863C524.053 80.1068 524.968 82.5958 525.097 85.1886C525.107 85.3018 525.11 85.4183 525.113 85.5347C525.132 86.3686 525.066 87.2087 525.1 88.0394C525.113 88.4135 525.155 88.786 525.226 89.1533C525.367 89.7441 525.543 90.3262 525.752 90.8966L525.761 90.9249C525.821 91.1074 525.878 91.2931 525.925 91.4787C525.959 91.614 525.991 91.7462 526.016 91.8815L526.019 91.8909C526.252 93.2813 526.287 94.6978 526.123 96.098Z" fill="#FBBEBE"/>
<path d="M504.041 63.5619C514.294 63.5619 522.606 55.25 522.606 44.9968C522.606 34.7436 514.294 26.4317 504.041 26.4317C493.787 26.4317 485.476 34.7436 485.476 44.9968C485.476 55.25 493.787 63.5619 504.041 63.5619Z" fill="#FBBEBE"/>
<path d="M621.907 146.148C621.369 141.083 619.568 136.234 616.671 132.045C617.152 134.909 617.635 137.771 618.118 140.632C617.517 140.806 616.878 140.801 616.28 140.617C615.682 140.433 615.151 140.079 614.751 139.597C613.969 138.621 613.371 137.511 612.986 136.321C610.877 131.085 608.119 126.135 604.776 121.586C592.958 120.601 581.274 115.702 570.881 109.99C560.484 104.282 550.755 97.4385 540.497 91.4882C538.719 90.4132 536.866 89.4668 534.953 88.6562C531.743 87.3692 528.14 86.7022 525.097 85.1886C524.893 85.0879 524.688 84.981 524.487 84.8708C523.8 84.497 523.149 84.0598 522.542 83.565C522.215 83.2989 521.904 83.0131 521.611 82.7091C520.093 80.9429 518.889 78.9292 518.052 76.7557C516.419 73.1434 515.837 68.7853 514.207 65.1729C514.956 64.4728 515.798 63.8789 516.709 63.4077H516.712C516.844 63.3385 516.976 63.2724 517.111 63.2094C517.756 62.9057 518.427 62.6603 519.116 62.4763C519.506 62.3724 519.899 62.2875 520.296 62.2214C520.312 62.2198 520.328 62.2166 520.343 62.212C522.182 61.9124 524.065 62.0614 525.834 62.6462C528.42 63.521 530.601 65.2673 532.775 66.9193C536.308 69.4079 539.696 72.0952 542.923 74.9684C544.717 76.6864 546.353 78.5744 548.282 80.1352C549.885 81.3722 551.575 82.4922 553.338 83.4863C563.776 89.704 574.214 95.9207 584.654 102.136C588.187 104.241 591.724 106.347 595.179 108.574C600.428 111.96 605.488 115.629 610.544 119.295C613.524 121.454 616.503 123.613 619.481 125.774C620.458 126.397 621.315 127.19 622.014 128.115C622.63 129.165 623.014 130.336 623.137 131.548C623.884 136.444 623.463 141.447 621.907 146.148Z" fill="#FBBEBE"/>
<path d="M530.727 110.06C529.475 115.676 523.798 119.072 520.831 124.005C517.143 130.129 518.647 137.246 520.032 144.26C517.502 146.441 514.971 148.622 512.439 150.802C511.042 152.001 509.645 153.206 508.141 154.267C505.947 155.736 503.655 157.052 501.281 158.206C499.04 159.358 496.8 160.511 494.56 161.664C492.477 162.835 490.27 163.77 487.98 164.452C483.565 165.585 478.877 164.792 474.509 163.48C473.994 163.345 473.499 163.143 473.037 162.879C472.764 162.716 472.527 162.501 472.338 162.246C471.908 161.474 471.751 160.579 471.895 159.707C472.338 152.357 474.135 145.16 475.925 138.017C476.882 133.732 478.169 129.527 479.774 125.44C481.348 121.938 483.157 118.547 485.189 115.289C487.432 111.191 490.089 107.333 493.119 103.776C494.593 102.407 495.835 100.806 496.794 99.0369C497.911 96.4882 497.48 93.5649 497.706 90.7896C497.88 88.7045 498.433 86.6686 499.339 84.7827V84.7796C499.824 83.7638 500.408 82.7983 501.083 81.8973C501.388 82.6084 501.693 83.3185 501.998 84.0275C502.2 84.4932 502.399 84.9579 502.596 85.4215C502.854 86.0194 503.11 86.6152 503.364 87.2088C504.097 88.9143 504.829 90.6187 505.56 92.3221C506.35 94.4675 507.476 96.4739 508.896 98.2661C509.545 99.1838 510.42 99.9176 511.438 100.396C512.455 100.874 513.579 101.08 514.699 100.994C515.82 100.908 516.899 100.533 517.832 99.9055C518.764 99.2779 519.518 98.4192 520.019 97.4133C521.077 95.5357 521.843 93.5081 522.291 91.4001C522.912 88.8335 522.998 86.1663 522.543 83.565C521.784 78.5556 519.654 73.4392 518.106 68.7853C517.476 67.2336 517.111 65.587 517.027 63.9143C517.03 63.7264 517.049 63.539 517.083 63.3542C517.093 63.307 517.102 63.2567 517.112 63.2095C517.756 62.9058 518.427 62.6604 519.116 62.4763C519.506 62.3725 519.899 62.2875 520.296 62.2214C521.658 69.5971 523.023 76.9728 524.39 84.3485C524.421 84.5216 524.456 84.6947 524.487 84.8709C524.682 85.9281 524.881 86.9854 525.101 88.0395C525.299 88.9961 525.513 89.9495 525.752 90.8967L525.762 90.925C525.843 91.246 525.928 91.5638 526.017 91.8816L526.02 91.891C526.262 92.7595 526.533 93.6216 526.838 94.4712C528.688 99.5908 531.913 104.745 530.727 110.06Z" fill="#6C63FF"/>
<path d="M606.071 188.993C606.013 190.075 606.222 191.154 606.681 192.136C607.843 194.259 610.631 194.742 613.043 194.941C627.136 196.099 641.314 195.667 655.309 193.653C656.068 193.601 656.805 193.372 657.46 192.985C659.45 191.59 658.224 188.19 656.051 187.102C653.878 186.013 651.3 186.276 648.916 185.804C646.547 185.208 644.292 184.23 642.238 182.908C637.403 180.13 632.638 177.234 627.945 174.22C625.15 172.425 621.852 170.51 618.705 171.574C610.18 174.458 606.015 179.796 606.071 188.993Z" fill="#3F3D56"/>
<path d="M502.187 82.9892V82.9923C502.165 83.1245 502.143 83.2535 502.114 83.3825C502.08 83.5965 502.039 83.8136 501.998 84.0275C501.608 86.0256 501.13 88.0143 500.579 89.9904C499.068 95.4498 497.045 100.821 495.038 106.114C489.651 120.305 484.263 134.497 478.873 148.691C477.514 152.265 476.158 155.843 474.613 159.345C474.097 160.513 473.565 161.689 473.036 162.879C471.142 167.136 469.323 171.532 468.719 176.063C468.156 179.045 468.091 182.1 468.527 185.103C469.131 188.074 470.935 190.975 473.757 192.073C475.135 192.611 477.108 193.332 476.731 194.764C476.526 195.55 475.632 195.934 474.83 196.066C473.77 196.235 472.687 196.169 471.656 195.872C470.625 195.575 469.671 195.055 468.864 194.348C467.357 193.011 466.199 190.931 464.194 190.708C462.807 190.557 461.529 191.387 460.258 191.969C455.072 194.339 449.031 192.681 443.584 190.997C444.012 188.791 446.227 187.338 448.427 186.897C450.626 186.453 452.901 186.768 455.145 186.708C455.863 186.747 456.576 186.563 457.187 186.183C457.734 185.68 458.118 185.025 458.288 184.301C459.733 180.019 460.808 175.621 461.501 171.155C462.225 166.488 462.527 161.749 463.559 157.139C464.361 153.543 465.601 150.06 466.664 146.529C468.721 139.26 470.41 131.892 471.724 124.452C472.389 121.362 472.865 118.233 473.15 115.085C473.329 112.473 473.244 109.849 473.496 107.246C473.918 103.861 474.625 100.517 475.607 97.2497C476.57 93.6845 477.532 90.1215 478.493 86.5606C479.918 81.29 481.447 75.8149 485.06 71.7179C486.314 70.2756 487.852 69.1064 489.577 68.2826C491.302 67.4588 493.178 66.998 495.088 66.9288C495.804 66.9279 496.519 67.0049 497.218 67.1585C497.335 67.1868 497.451 67.2151 497.567 67.2466C498.33 67.4459 499.062 67.7487 499.742 68.1465C500.856 67.4385 501.422 67.6871 502.162 68.779C502.81 69.9345 503.115 71.2509 503.043 72.5738C503.105 76.0655 502.818 79.5546 502.187 82.9892Z" fill="#FBBEBE"/>
<path d="M503.411 87.1616L503.363 87.2088L503.109 87.4637L500.579 89.9904L499.339 84.7827L495.088 66.9287C495.804 66.9279 496.518 67.0049 497.218 67.1584C497.248 66.9539 497.298 66.7527 497.366 66.5574L497.567 67.2465L499.009 72.149L501.737 81.4567L502.187 82.9891V82.9923L503.411 87.1616Z" fill="#6C63FF"/>
<path d="M519.465 30.2028C519.463 31.856 519.135 33.4926 518.5 35.019C517.865 36.5454 516.936 37.9317 515.765 39.0986C515.341 39.5234 514.886 39.9165 514.405 40.275C512.233 41.9119 509.588 42.7978 506.869 42.7991H491.773C488.437 42.794 485.24 41.4652 482.883 39.1047C480.526 36.7441 479.202 33.5447 479.202 30.2089C479.202 26.8732 480.526 23.6737 482.883 21.3132C485.24 18.9526 488.437 17.6239 491.773 17.6187H506.869C510.205 17.6274 513.402 18.9556 515.762 21.3134C518.122 23.6711 519.453 26.8668 519.465 30.2028Z" fill="#2F2E41"/>
<path d="M533.619 31.1516C540.744 31.1516 546.52 25.3756 546.52 18.2505C546.52 11.1253 540.744 5.34927 533.619 5.34927C526.494 5.34927 520.718 11.1253 520.718 18.2505C520.718 25.3756 526.494 31.1516 533.619 31.1516Z" fill="#2F2E41"/>
<path opacity="0.1" d="M533.304 5.34927C533.146 5.34927 532.989 5.35556 532.832 5.36121C536.169 5.48254 539.33 6.89362 541.648 9.29756C543.966 11.7015 545.261 14.9109 545.261 18.2505C545.261 21.59 543.966 24.7994 541.648 27.2033C539.33 29.6073 536.169 31.0184 532.832 31.1397C532.989 31.1453 533.146 31.1516 533.304 31.1516C536.726 31.1516 540.007 29.7924 542.427 27.373C544.846 24.9535 546.205 21.6721 546.205 18.2505C546.205 14.8289 544.846 11.5474 542.427 9.12794C540.007 6.70851 536.726 5.34927 533.304 5.34927Z" fill="black"/>
<path opacity="0.1" d="M471.945 5.34927C472.103 5.34927 472.26 5.35556 472.417 5.36121C469.079 5.48254 465.919 6.89362 463.601 9.29756C461.283 11.7015 459.987 14.9109 459.987 18.2505C459.987 21.59 461.283 24.7994 463.601 27.2033C465.919 29.6073 469.079 31.0184 472.417 31.1397C472.26 31.1453 472.103 31.1516 471.945 31.1516C468.525 31.1486 465.246 29.7881 462.829 27.3689C460.412 24.9498 459.055 21.6701 459.055 18.2505C459.055 14.8308 460.412 11.5511 462.829 9.13196C465.246 6.71284 468.525 5.35228 471.945 5.34927Z" fill="black"/>
<path opacity="0.1" d="M514.405 40.275C512.233 41.9119 509.588 42.7979 506.869 42.7991H491.773C489.054 42.7978 486.409 41.9119 484.237 40.275H514.405Z" fill="black"/>
<path d="M611.89 133.756C611.89 133.756 615.142 143.128 618.119 140.632L615.746 128.382L611.89 133.756Z" fill="#FBBEBE"/>
<path d="M1007.67 419.55C1010.7 420.651 1013.94 421.033 1017.14 420.667C1020.35 420.301 1023.42 419.196 1026.12 417.439C1028.82 415.683 1031.08 413.322 1032.72 410.544C1034.35 407.766 1035.32 404.647 1035.54 401.431C1035.76 398.216 1035.24 394.992 1034 392.015C1032.77 389.038 1030.86 386.388 1028.42 384.275C1025.99 382.161 1023.1 380.642 1019.98 379.837C1016.86 379.032 1013.59 378.962 1010.44 379.634L1010.96 390.347L1005.89 381.166C1000.92 383.503 997.075 387.72 995.208 392.889C994.545 394.699 994.142 396.595 994.011 398.519C993.691 403.032 994.851 407.527 997.316 411.322C999.78 415.117 1003.41 418.006 1007.67 419.55Z" fill="#57B894"/>
<path d="M1032.74 543.793C1030.96 534.683 1038.71 526.606 1046.37 521.357C1054.02 516.107 1062.97 510.949 1065.58 502.04C1069.34 489.236 1058.15 477.51 1049.45 467.398C1042.99 459.894 1037.44 451.651 1032.92 442.841C1031.11 439.308 1029.45 435.615 1028.97 431.674C1028.29 425.999 1030.11 420.351 1031.95 414.938C1038.07 396.903 1044.61 379.02 1051.57 361.288" stroke="#3F3D56" stroke-miterlimit="10"/>
<path d="M1008.52 416.792C1011.55 417.893 1014.8 418.276 1018 417.909C1021.2 417.543 1024.28 416.438 1026.98 414.682C1029.68 412.925 1031.94 410.564 1033.57 407.786C1035.21 405.008 1036.18 401.889 1036.4 398.673C1036.62 395.458 1036.09 392.234 1034.86 389.257C1033.62 386.28 1031.72 383.63 1029.28 381.517C1026.85 379.403 1023.96 377.884 1020.84 377.079C1017.71 376.274 1014.45 376.204 1011.3 376.876L1011.82 387.589L1006.75 378.408C1001.78 380.745 997.933 384.962 996.066 390.131C995.403 391.941 995 393.837 994.869 395.761C994.549 400.274 995.709 404.769 998.173 408.564C1000.64 412.359 1004.27 415.248 1008.52 416.792V416.792Z" stroke="#3F3D56" stroke-miterlimit="10"/>
<path d="M1030.2 357.588C1031.39 354.308 1033.39 351.38 1036 349.073C1038.62 346.767 1041.78 345.157 1045.18 344.391L1046.89 354.574L1050.07 343.879C1054.48 343.944 1058.76 345.41 1062.28 348.064C1065.81 350.718 1068.4 354.423 1069.68 358.645C1070.96 362.866 1070.86 367.386 1069.41 371.551C1067.95 375.715 1065.21 379.31 1061.58 381.815C1057.95 384.32 1053.62 385.607 1049.21 385.489C1044.8 385.371 1040.54 383.854 1037.05 381.158C1033.55 378.462 1031.01 374.726 1029.78 370.49C1028.55 366.253 1028.7 361.735 1030.2 357.588H1030.2Z" fill="#57B894"/>
<path d="M1031.34 353.911C1032.53 350.631 1034.53 347.703 1037.15 345.396C1039.76 343.09 1042.92 341.479 1046.32 340.713L1048.04 350.897L1051.21 340.201C1055.63 340.267 1059.9 341.732 1063.43 344.387C1066.95 347.041 1069.54 350.746 1070.82 354.968C1072.1 359.189 1072.01 363.709 1070.55 367.873C1069.1 372.038 1066.35 375.633 1062.72 378.138C1059.09 380.643 1054.76 381.93 1050.35 381.812C1045.94 381.694 1041.68 380.177 1038.19 377.481C1034.7 374.785 1032.15 371.049 1030.92 366.813C1029.69 362.576 1029.84 358.058 1031.34 353.911H1031.34Z" stroke="#3F3D56" stroke-miterlimit="10"/>
<path d="M1045.79 467.604C1050.6 469.347 1055.88 469.261 1060.62 467.363C1065.37 465.464 1069.25 461.886 1071.52 457.311C1073.8 452.736 1074.31 447.482 1072.96 442.553C1071.62 437.623 1068.5 433.362 1064.21 430.582L1061.77 438.801L1060.04 428.497C1060.02 428.489 1060.01 428.482 1059.99 428.477C1057.42 427.543 1054.69 427.125 1051.96 427.246C1049.23 427.367 1046.55 428.025 1044.07 429.182C1041.59 430.339 1039.37 431.973 1037.52 433.991C1035.68 436.008 1034.25 438.369 1033.32 440.94C1032.38 443.51 1031.97 446.238 1032.09 448.97C1032.21 451.701 1032.87 454.381 1034.03 456.857C1035.19 459.334 1036.82 461.557 1038.84 463.401C1040.86 465.245 1043.22 466.674 1045.79 467.604H1045.79Z" fill="#57B894"/>
<path d="M1046.78 463.88C1051.59 465.622 1056.87 465.536 1061.61 463.638C1066.36 461.74 1070.24 458.162 1072.51 453.586C1074.79 449.011 1075.3 443.758 1073.95 438.828C1072.61 433.899 1069.49 429.638 1065.2 426.857L1062.76 435.076L1061.03 424.772C1061.01 424.764 1061 424.758 1060.98 424.752C1058.41 423.818 1055.68 423.4 1052.95 423.521C1050.22 423.642 1047.54 424.3 1045.06 425.457C1042.58 426.615 1040.36 428.249 1038.51 430.266C1036.67 432.284 1035.24 434.645 1034.31 437.215C1033.37 439.785 1032.96 442.514 1033.08 445.245C1033.2 447.976 1033.86 450.656 1035.02 453.133C1036.18 455.609 1037.81 457.833 1039.83 459.677C1041.85 461.521 1044.21 462.949 1046.78 463.88H1046.78Z" stroke="#3F3D56" stroke-miterlimit="10"/>
<path d="M1024.13 502.167C1024.95 506.867 1027.37 511.14 1030.97 514.27C1034.58 517.4 1039.15 519.195 1043.91 519.356C1048.68 519.517 1053.36 518.032 1057.17 515.152C1060.97 512.272 1063.67 508.171 1064.81 503.537C1065.95 498.903 1065.47 494.018 1063.43 489.701C1061.4 485.384 1057.94 481.897 1053.64 479.826C1049.34 477.755 1044.46 477.225 1039.82 478.326C1035.17 479.426 1031.05 482.089 1028.14 485.87L1037.41 499.826L1024.74 492.418C1023.76 495.572 1023.55 498.915 1024.13 502.167Z" fill="#57B894"/>
<path d="M1024.98 499.409C1025.81 504.109 1028.23 508.382 1031.83 511.512C1035.43 514.642 1040 516.437 1044.77 516.598C1049.54 516.759 1054.22 515.274 1058.03 512.394C1061.83 509.514 1064.53 505.413 1065.67 500.779C1066.81 496.145 1066.32 491.26 1064.29 486.943C1062.26 482.626 1058.8 479.139 1054.5 477.068C1050.2 474.997 1045.32 474.467 1040.68 475.568C1036.03 476.668 1031.91 479.332 1029 483.112L1038.27 497.068L1025.6 489.661C1024.62 492.814 1024.41 496.157 1024.98 499.409V499.409Z" stroke="#3F3D56" stroke-miterlimit="10"/>
<path d="M9.81141 470.249C11.8017 470.972 13.9329 471.224 16.0369 470.983C18.1409 470.743 20.1603 470.017 21.9359 468.862C23.7115 467.708 25.1947 466.157 26.2687 464.332C27.3427 462.507 27.9781 460.457 28.1248 458.345C28.2715 456.232 27.9255 454.114 27.1141 452.158C26.3026 450.202 25.048 448.461 23.4489 447.073C21.8499 445.684 19.9502 444.686 17.8996 444.157C15.8491 443.628 13.7036 443.582 11.6324 444.024L11.9747 451.062L8.64481 445.03C5.37673 446.566 2.85201 449.336 1.62545 452.732C1.18985 453.922 0.925033 455.167 0.838908 456.431C0.628725 459.397 1.39093 462.35 3.01003 464.843C4.62912 467.337 7.01686 469.234 9.81141 470.249Z" fill="#57B894"/>
<path d="M26.287 551.879C25.1115 545.893 30.205 540.587 35.2361 537.138C40.2673 533.688 46.1459 530.3 47.8625 524.446C50.3296 516.034 42.9809 508.33 37.2611 501.686C33.0176 496.756 29.3734 491.34 26.4048 485.551C25.1142 483.278 24.2352 480.794 23.8081 478.215C23.3571 474.486 24.5551 470.775 25.7621 467.219C29.7827 455.37 34.0814 443.62 38.6583 431.969" stroke="#3F3D56" stroke-miterlimit="10"/>
<path d="M10.3739 468.437C12.3642 469.16 14.4954 469.412 16.5994 469.171C18.7034 468.931 20.7228 468.205 22.4984 467.05C24.274 465.896 25.7572 464.345 26.8312 462.52C27.9052 460.695 28.5406 458.645 28.6873 456.533C28.834 454.42 28.488 452.302 27.6765 450.346C26.8651 448.39 25.6104 446.649 24.0114 445.261C22.4124 443.872 20.5127 442.874 18.4621 442.345C16.4116 441.816 14.2661 441.77 12.1949 442.212L12.5372 449.25L9.20731 443.218C5.93924 444.754 3.41451 447.524 2.18795 450.92C1.75235 452.11 1.48754 453.355 1.40141 454.619C1.19122 457.585 1.95342 460.538 3.57252 463.031C5.19161 465.525 7.57936 467.422 10.3739 468.437V468.437Z" stroke="#3F3D56" stroke-miterlimit="10"/>
<path d="M24.6158 429.539C25.3969 427.384 26.7078 425.46 28.4278 423.945C30.1478 422.429 32.2216 421.371 34.4579 420.868L35.5838 427.559L37.6712 420.531C40.5694 420.574 43.3789 421.537 45.6942 423.281C48.0094 425.025 49.7106 427.459 50.5521 430.233C51.3936 433.007 51.3318 435.976 50.3757 438.712C49.4196 441.449 47.6187 443.81 45.2329 445.456C42.8472 447.102 40 447.948 37.1026 447.87C34.2051 447.793 31.4072 446.796 29.113 445.025C26.8187 443.254 25.1467 440.799 24.3383 438.016C23.53 435.232 23.6272 432.264 24.6158 429.539Z" fill="#57B894"/>
<path d="M25.3668 427.123C26.1479 424.968 27.4588 423.044 29.1788 421.529C30.8988 420.013 32.9725 418.955 35.2089 418.452L36.3348 425.143L38.4222 418.115C41.3203 418.158 44.1299 419.121 46.4451 420.865C48.7604 422.609 50.4616 425.043 51.3031 427.817C52.1445 430.591 52.0828 433.56 51.1267 436.296C50.1706 439.033 48.3697 441.394 45.9839 443.04C43.5981 444.686 40.751 445.532 37.8535 445.454C34.9561 445.377 32.1582 444.38 29.8639 442.609C27.5696 440.838 25.8976 438.383 25.0893 435.599C24.281 432.816 24.3782 429.848 25.3668 427.123V427.123Z" stroke="#3F3D56" stroke-miterlimit="10"/>
<path d="M34.8613 501.822C38.0177 502.967 41.485 502.91 44.6025 501.663C47.7199 500.416 50.2693 498.065 51.7649 495.059C53.2605 492.052 53.5976 488.601 52.712 485.362C51.8265 482.124 49.7801 479.324 46.9629 477.497L45.359 482.897L44.2217 476.127C44.2104 476.122 44.1988 476.118 44.1869 476.114C42.4985 475.5 40.7058 475.225 38.911 475.304C37.1163 475.384 35.3547 475.816 33.7271 476.576C32.0994 477.336 30.6376 478.41 29.425 479.736C28.2125 481.061 27.2731 482.613 26.6604 484.302C26.0478 485.99 25.774 487.783 25.8546 489.578C25.9352 491.373 26.3687 493.134 27.1303 494.761C27.8919 496.388 28.9667 497.849 30.2932 499.061C31.6197 500.272 33.172 501.21 34.8613 501.822Z" fill="#57B894"/>
<path d="M35.5115 499.374C38.6679 500.519 42.1352 500.463 45.2526 499.216C48.37 497.968 50.9195 495.618 52.4151 492.611C53.9107 489.605 54.2478 486.154 53.3622 482.915C52.4766 479.676 50.4302 476.877 47.6131 475.05L46.0092 480.45L44.8719 473.68C44.8606 473.675 44.849 473.671 44.8371 473.667C43.1491 473.055 41.3571 472.781 39.5632 472.861C37.7694 472.941 36.009 473.374 34.3824 474.135C31.0975 475.671 28.5572 478.449 27.3206 481.858C26.0839 485.267 26.2522 489.028 27.7882 492.313C29.3243 495.598 32.1025 498.138 35.5115 499.374V499.374Z" stroke="#3F3D56" stroke-miterlimit="10"/>
<path d="M20.6261 524.53C21.1688 527.618 22.7568 530.426 25.1239 532.482C27.4909 534.538 30.493 535.718 33.6267 535.823C36.7603 535.929 39.835 534.954 42.335 533.061C44.835 531.169 46.6083 528.475 47.3575 525.43C48.1068 522.385 47.7864 519.176 46.45 516.339C45.1137 513.503 42.8427 511.212 40.0179 509.852C37.1932 508.491 33.9864 508.143 30.9355 508.866C27.8845 509.589 25.1749 511.339 23.2611 513.822L29.3534 522.992L21.029 518.125C20.3836 520.197 20.2454 522.393 20.6261 524.53Z" fill="#57B894"/>
<path d="M21.1886 522.718C21.7313 525.806 23.3193 528.613 25.6864 530.67C28.0534 532.726 31.0555 533.906 34.1892 534.011C37.3228 534.117 40.3975 533.142 42.8975 531.249C45.3975 529.357 47.1708 526.663 47.92 523.618C48.6693 520.573 48.3489 517.364 47.0125 514.527C45.6762 511.691 43.4052 509.4 40.5804 508.039C37.7557 506.679 34.5489 506.331 31.498 507.054C28.447 507.777 25.7374 509.527 23.8236 512.01L29.9159 521.18L21.5915 516.313C20.9461 518.385 20.8079 520.581 21.1886 522.718V522.718Z" stroke="#3F3D56" stroke-miterlimit="10"/>
<path d="M481.75 341.115C491.139 341.115 498.75 331.266 498.75 319.115C498.75 306.965 491.139 297.115 481.75 297.115C472.361 297.115 464.75 306.965 464.75 319.115C464.75 331.266 472.361 341.115 481.75 341.115Z" fill="#2F2E41"/>
<path d="M574.25 341.615C583.639 341.615 591.25 331.766 591.25 319.615C591.25 307.465 583.639 297.615 574.25 297.615C564.861 297.615 557.25 307.465 557.25 319.615C557.25 331.766 564.861 341.615 574.25 341.615Z" fill="#2F2E41"/>
<path d="M561.25 384.615C561.25 394.555 547.37 402.615 530.25 402.615C513.13 402.615 499.25 394.555 499.25 384.615C499.25 376.005 509.66 368.805 523.57 367.045C525.785 366.753 528.016 366.61 530.25 366.615C533.993 366.603 537.726 367.006 541.38 367.816C553 370.406 561.25 376.955 561.25 384.615Z" fill="#2F2E41"/>
<path d="M485.75 336.115C495.139 336.115 502.75 326.266 502.75 314.115C502.75 301.965 495.139 292.115 485.75 292.115C476.361 292.115 468.75 301.965 468.75 314.115C468.75 326.266 476.361 336.115 485.75 336.115Z" stroke="#3F3D56" stroke-miterlimit="10"/>
<path d="M578.25 336.615C587.639 336.615 595.25 326.766 595.25 314.615C595.25 302.465 587.639 292.615 578.25 292.615C568.861 292.615 561.25 302.465 561.25 314.615C561.25 326.766 568.861 336.615 578.25 336.615Z" stroke="#3F3D56" stroke-miterlimit="10"/>
<path d="M534.25 397.615C551.371 397.615 565.25 389.557 565.25 379.615C565.25 369.674 551.371 361.615 534.25 361.615C517.129 361.615 503.25 369.674 503.25 379.615C503.25 389.557 517.129 397.615 534.25 397.615Z" stroke="#3F3D56" stroke-miterlimit="10"/>
<path d="M541.75 369.316C541.758 370.573 541.286 371.786 540.43 372.707C540.026 373.149 539.535 373.502 538.987 373.744C538.44 373.986 537.849 374.113 537.25 374.115H527.25C526.018 374.073 524.853 373.544 524.01 372.644C523.166 371.745 522.713 370.548 522.75 369.316C522.745 368.341 523.03 367.386 523.57 366.574C525.783 366.263 528.015 366.109 530.25 366.115C533.998 366.103 537.733 366.533 541.38 367.396C541.627 368.005 541.753 368.658 541.75 369.316Z" fill="white"/>
<path d="M485.75 313.115C488.511 313.115 490.75 310.877 490.75 308.115C490.75 305.354 488.511 303.115 485.75 303.115C482.989 303.115 480.75 305.354 480.75 308.115C480.75 310.877 482.989 313.115 485.75 313.115Z" fill="white"/>
<path d="M578.75 313.115C581.511 313.115 583.75 310.877 583.75 308.115C583.75 305.354 581.511 303.115 578.75 303.115C575.989 303.115 573.75 305.354 573.75 308.115C573.75 310.877 575.989 313.115 578.75 313.115Z" fill="white"/>
<path opacity="0.3" d="M583.75 360.115C586.511 360.115 588.75 357.877 588.75 355.115C588.75 352.354 586.511 350.115 583.75 350.115C580.989 350.115 578.75 352.354 578.75 355.115C578.75 357.877 580.989 360.115 583.75 360.115Z" fill="#6C63FF"/>
<path opacity="0.3" d="M461.75 360.115C464.511 360.115 466.75 357.877 466.75 355.115C466.75 352.354 464.511 350.115 461.75 350.115C458.989 350.115 456.75 352.354 456.75 355.115C456.75 357.877 458.989 360.115 461.75 360.115Z" fill="#6C63FF"/>
</g>
<defs>
<clipPath id="clip0_29036_6001">
<rect width="1074.39" height="584.231" fill="white" transform="translate(0.803711)"/>
</clipPath>
</defs>
</svg>
