<svg width="24" height="24" viewBox="0 0 24 24" fill="none" xmlns="http://www.w3.org/2000/svg">
<path d="M10.1197 8.90161C10.3057 8.77801 10.5349 8.66641 10.8001 8.58121V10.6188C10.5598 10.5435 10.3309 10.4357 10.1197 10.2984C9.6841 10.008 9.6001 9.73681 9.6001 9.60001C9.6001 9.46321 9.6841 9.19201 10.1197 8.90161ZM13.2001 15.4188V13.3812C13.4641 13.4664 13.6945 13.578 13.8805 13.7016C14.3173 13.9932 14.4001 14.2632 14.4001 14.4C14.4001 14.5368 14.3161 14.808 13.8805 15.0984C13.6693 15.2357 13.4404 15.3435 13.2001 15.4188Z" fill="white"/>
<path fill-rule="evenodd" clip-rule="evenodd" d="M11.9999 21.6C14.546 21.6 16.9878 20.5886 18.7881 18.7882C20.5885 16.9879 21.5999 14.5461 21.5999 12C21.5999 9.45392 20.5885 7.01212 18.7881 5.21177C16.9878 3.41142 14.546 2.39999 11.9999 2.39999C9.45382 2.39999 7.01203 3.41142 5.21168 5.21177C3.41133 7.01212 2.3999 9.45392 2.3999 12C2.3999 14.5461 3.41133 16.9879 5.21168 18.7882C7.01203 20.5886 9.45382 21.6 11.9999 21.6V21.6ZM13.1999 5.99999C13.1999 5.68173 13.0735 5.37651 12.8484 5.15147C12.6234 4.92642 12.3182 4.79999 11.9999 4.79999C11.6816 4.79999 11.3764 4.92642 11.1514 5.15147C10.9263 5.37651 10.7999 5.68173 10.7999 5.99999V6.11039C10.0831 6.23799 9.39921 6.50813 8.7887 6.90479C7.9223 7.48079 7.1999 8.41079 7.1999 9.59999C7.1999 10.788 7.9223 11.718 8.7887 12.2952C9.3647 12.6792 10.0535 12.9492 10.7999 13.0896V15.4188C10.3307 15.2664 9.9839 15.0384 9.7883 14.814C9.68678 14.6894 9.56128 14.5865 9.41924 14.5114C9.27719 14.4362 9.1215 14.3904 8.9614 14.3765C8.80129 14.3627 8.64004 14.3811 8.48721 14.4308C8.33438 14.4805 8.19308 14.5603 8.07169 14.6656C7.9503 14.7709 7.85131 14.8995 7.78057 15.0438C7.70984 15.1881 7.6688 15.3452 7.6599 15.5056C7.65101 15.6661 7.67443 15.8267 7.72878 15.9779C7.78313 16.1291 7.8673 16.2679 7.9763 16.386C8.6507 17.1648 9.6719 17.6772 10.7999 17.8896V18C10.7999 18.3183 10.9263 18.6235 11.1514 18.8485C11.3764 19.0736 11.6816 19.2 11.9999 19.2C12.3182 19.2 12.6234 19.0736 12.8484 18.8485C13.0735 18.6235 13.1999 18.3183 13.1999 18V17.8896C13.9167 17.762 14.6006 17.4919 15.2111 17.0952C16.0775 16.5192 16.7999 15.5892 16.7999 14.4C16.7999 13.212 16.0775 12.282 15.2111 11.7048C14.6006 11.3081 13.9167 11.038 13.1999 10.9104V8.58119C13.6691 8.73359 14.0159 8.96159 14.2115 9.18599C14.314 9.30757 14.4396 9.40757 14.581 9.48018C14.7225 9.5528 14.8769 9.59658 15.0354 9.60899C15.1939 9.62139 15.3533 9.60218 15.5044 9.55245C15.6554 9.50273 15.795 9.42349 15.9151 9.31934C16.0353 9.21518 16.1335 9.0882 16.2042 8.94575C16.2748 8.80331 16.3164 8.64825 16.3266 8.48958C16.3368 8.33091 16.3154 8.1718 16.2635 8.02149C16.2117 7.87117 16.1305 7.73266 16.0247 7.61399C15.3491 6.83519 14.3291 6.32279 13.1999 6.11039V5.99999Z" fill="white"/>
</svg>
