<svg width="24" height="20" viewBox="0 0 24 20" fill="#fff" xmlns="http://www.w3.org/2000/svg">
<path id="customers" d="M9.79995 4.2C9.79995 5.15478 9.42067 6.07045 8.74554 6.74559C8.0704 7.42072 7.15473 7.8 6.19995 7.8C5.24517 7.8 4.3295 7.42072 3.65437 6.74559C2.97924 6.07045 2.59995 5.15478 2.59995 4.2C2.59995 3.24522 2.97924 2.32955 3.65437 1.65442C4.3295 0.979285 5.24517 0.6 6.19995 0.6C7.15473 0.6 8.0704 0.979285 8.74554 1.65442C9.42067 2.32955 9.79995 3.24522 9.79995 4.2V4.2ZM19.4 4.2C19.4 4.67276 19.3068 5.14089 19.1259 5.57766C18.945 6.01443 18.6798 6.41129 18.3455 6.74559C18.0112 7.07988 17.6144 7.34505 17.1776 7.52597C16.7408 7.70688 16.2727 7.8 15.8 7.8C15.3272 7.8 14.8591 7.70688 14.4223 7.52597C13.9855 7.34505 13.5887 7.07988 13.2544 6.74559C12.9201 6.41129 12.6549 6.01443 12.474 5.57766C12.2931 5.14089 12.2 4.67276 12.2 4.2C12.2 3.24522 12.5792 2.32955 13.2544 1.65442C13.9295 0.979285 14.8452 0.6 15.8 0.6C16.7547 0.6 17.6704 0.979285 18.3455 1.65442C19.0207 2.32955 19.4 3.24522 19.4 4.2V4.2ZM14.516 17.4C14.5712 17.0076 14.6 16.608 14.6 16.2C14.6027 14.3146 13.9684 12.4836 12.8 11.004C13.7121 10.4774 14.7467 10.2002 15.7999 10.2002C16.8531 10.2001 17.8878 10.4774 18.7999 11.004C19.712 11.5306 20.4694 12.288 20.996 13.2001C21.5227 14.1121 21.7999 15.1468 21.7999 16.2V17.4H14.516ZM6.19995 10.2C7.79125 10.2 9.31737 10.8321 10.4426 11.9574C11.5678 13.0826 12.2 14.6087 12.2 16.2V17.4H0.199951V16.2C0.199951 14.6087 0.832092 13.0826 1.95731 11.9574C3.08253 10.8321 4.60865 10.2 6.19995 10.2V10.2Z"/>
</svg>
